<?xml version="1.0" encoding="UTF-8"?>
<!DOCTYPE svg PUBLIC "-//W3C//DTD SVG 1.1//EN" "http://www.w3.org/Graphics/SVG/1.1/DTD/svg11.dtd">
<!-- Creator: CorelDRAW X8 -->
<svg xmlns="http://www.w3.org/2000/svg" xml:space="preserve" width="15.8954in" height="13.2609in" version="1.1" style="shape-rendering:geometricPrecision; text-rendering:geometricPrecision; image-rendering:optimizeQuality; fill-rule:evenodd; clip-rule:evenodd"
viewBox="0 0 39049 32577"
 xmlns:xlink="http://www.w3.org/1999/xlink">
 <defs>
  <style type="text/css">
   <![CDATA[
    .fil0 {fill:#020202}
    .fil6 {fill:#252D21}
    .fil2 {fill:#45543D}
    .fil1 {fill:#89BE6D}
    .fil7 {fill:#B91817}
    .fil3 {fill:#CECAD1}
    .fil5 {fill:#F50302}
    .fil4 {fill:#FCF1FC}
   ]]>
  </style>
 </defs>
 <g id="Layer_x0020_1">
  <metadata id="CorelCorpID_0Corel-Layer"/>
  <g id="_1969685095216">
   <path class="fil0" d="M32875 25502l492 65c28,144 14,661 -84,804 -165,-60 -333,-179 -451,-277l43 -592zm355 -1217l95 625 -483 -122 -42 -449 430 -54zm-18463 1459c-67,-519 -172,25 -233,-989l1178 49c26,249 106,517 11,723 -108,235 -39,478 -9,737 57,490 123,994 181,1495 28,237 90,559 59,791 -110,822 -1420,1229 -2169,700 -117,-82 -308,-285 -372,-449 -104,-266 -261,-1775 -298,-2194 -19,-212 -58,-471 -85,-722 -85,-815 -221,-50 -316,-1315l1302 149c112,1012 31,491 -21,795 -13,79 295,2757 382,2938 149,311 577,274 661,-59 41,-164 -230,-2335 -271,-2649zm-8810 -388c-77,4 -209,19 -280,5 -205,-39 -797,-684 -851,-840l1178 277 -47 558zm18654 943l125 1144c708,-64 675,-177 693,-837l916 -193c22,117 218,1469 140,1599l-2870 343c-11,-151 -104,-509 -19,-601 134,-359 65,-518 21,-936l-208 -1973c-88,-388 -201,64 -240,-846 534,-99 1585,-424 2149,-612 213,-71 483,-184 686,-228l151 1404 -928 240c-77,-521 -326,-509 -813,-376l114 1072c165,7 677,-134 863,-180 33,184 97,548 64,724 -306,65 -830,102 -844,256zm10572 -2310c-81,167 -156,296 -259,436 -86,117 -234,316 -319,399 -293,284 -312,422 -935,168l-127 -770 1640 -233zm-1579 -199l-182 -3 -163 -490 385 -138 478 -186c156,-60 309,-123 471,-160 -12,317 -63,650 -139,927l-850 50zm1930 -788l-195 687 -790 45c2,-34 240,-976 240,-976 135,-134 477,-185 668,-278l151 -27 -74 549zm-1539 -849c-248,-1 -463,91 -711,124l25 -683 528 -238 469 -231c136,156 201,683 228,921l-539 107zm1009 -1347c83,-60 194,-124 322,-138 102,335 236,770 241,1163l-226 58 -565 90 -189 -1015c194,-38 240,-124 417,-158zm-27715 -248c22,-216 382,-840 495,-1025 415,-686 1007,-1008 1618,-1454 133,-97 306,-228 420,-332 123,-112 284,-312 416,-368 -36,496 -273,582 -432,762l-1559 1887c-45,59 -569,948 -620,878 -6,-9 -21,12 -32,17 28,-276 236,-470 311,-741 -104,67 -66,50 -146,146l-144 142c44,-152 238,-479 307,-580 -264,184 -412,443 -634,668zm-625 -5162c-101,421 -469,940 -462,1467 -21,413 51,308 -164,546 -123,136 -179,293 -352,370 -45,115 -72,143 -156,217 -112,98 -82,81 -163,175l-114 129c-42,-493 278,-1662 447,-2079 189,-464 720,-1397 1101,-1419 1,221 -90,419 -137,594zm27613 2765l-339 -402c-3,-12 -10,-15 -14,-23 -111,-58 -226,-223 -318,-325 -155,-171 -165,-190 -151,-510 2,-254 -109,-605 -193,-818 -72,-185 -274,-566 -288,-719 -38,-95 -123,-412 -118,-546 370,-29 945,1033 1102,1423 147,364 496,1620 439,2058 -84,-58 -66,-36 -120,-138zm-24448 -4260c32,-560 -17,-993 -22,-1523 -1,-233 24,-452 107,-644 90,-210 149,-350 404,-338 593,730 166,2044 -489,2505zm19992 2c-266,-156 -625,-797 -714,-1104 -131,-451 -40,-1147 252,-1410 725,61 397,1721 462,2514zm-1657 -5211c-127,112 -273,205 -409,307 -280,210 -477,461 -675,758 -113,168 -194,375 -288,466 54,-702 756,-1669 1220,-1781 1834,-1188 3953,817 4041,2557 149,468 -159,1587 -325,2039 -115,316 -225,611 -348,915 -110,274 -247,689 -554,696 -382,-257 -110,-944 41,-1238 221,-431 328,-822 175,-1352 -19,375 -10,537 -183,861 -61,116 -48,104 -145,176 -6,-238 48,-478 66,-718 20,-287 -11,-445 -47,-717 -46,-165 -154,-292 -214,-466 -81,-56 -142,-135 -235,-225 239,768 244,1357 141,2161l-111 694c-259,-306 -268,-1008 -237,-1446 40,-550 -156,-1050 -558,-1176 46,-103 -5,-30 79,-123 188,-210 482,-324 735,-424 212,-4 -261,-36 -458,55 -381,176 -840,673 -989,1126 -127,386 -122,796 4,1181 157,479 442,725 501,908l767 792c1283,1217 2902,2416 3977,3803 273,352 1019,1458 1116,1977 -96,65 -212,96 -337,90 -86,81 -264,109 -393,138l-337 -823c-279,-630 -521,-891 -882,-1368 -98,-128 -479,-515 -509,-625 -186,-167 -723,-786 -1050,-1092l-1843 -1709c85,186 2048,2469 2240,2678l460 495c281,270 634,727 839,1086 246,167 712,1184 776,1452l-509 148 -483 139 -228 -609c91,-94 253,-202 374,-277l-20 -24 -447 170c-72,-216 -439,-706 -563,-870 -1002,-1319 -1625,-1369 -2116,-2105 -185,-127 -306,-293 -460,-471 -735,-846 -633,-1304 -838,-1895 -334,-967 -988,-1699 -1248,-2367 -259,-663 -169,-1420 -174,-2151 -57,157 -368,1201 -396,1242 -186,-342 29,-1338 161,-1667 152,-379 600,-941 828,-1089 541,-496 984,-453 1181,-624 -532,49 -704,137 -1113,322zm-16596 344c874,521 1238,2229 976,2691l-399 -1221c-20,790 108,1465 -194,2205 -260,638 -949,1438 -1254,2394 -97,304 -130,662 -246,950 -88,217 -788,1255 -1056,1393 -41,41 -68,80 -132,149 -537,579 -913,737 -1421,1277 -82,88 -204,202 -281,297 -526,654 -1110,1467 -1204,2384 -104,1012 298,1119 118,1546l-182 419 -299 -55 -827 -139c127,85 329,145 477,209 74,31 165,73 241,100 38,15 85,28 127,43l109 49 113 45 -54 177 -91 291 -1531 -97c-160,-253 -427,-841 -447,-1193 -423,-2218 1261,-4411 2217,-5352 1124,-1106 1890,-1709 3007,-2725 375,-341 754,-804 923,-952 110,-281 866,-986 515,-2066 -179,-552 -808,-1297 -1553,-1217 38,32 -67,36 97,21 422,140 562,256 796,493 -129,141 -287,188 -422,461 -111,224 -128,493 -110,763 33,483 16,704 -122,1151 -13,40 -39,120 -52,150l-92 155c-139,-1192 -256,-1682 45,-2847 -128,56 -118,129 -240,232l-187 398c-166,1016 60,1102 17,1534 -117,-73 -235,-318 -276,-491 -60,-257 -14,-503 -54,-701 5,117 -84,490 -63,760 21,270 101,432 204,641 80,163 207,448 245,644 29,151 -9,579 -179,643 -253,46 -398,-335 -501,-583 -465,-1119 -536,-1257 -755,-2559 20,-106 -9,-318 2,-455 69,-840 570,-1733 1171,-2259 733,-642 1903,-996 2893,-349 375,155 565,386 804,728 181,261 417,665 403,1054 -114,-129 -291,-599 -586,-875 -125,-118 -221,-243 -362,-353l-403 -308c-380,-132 -590,-306 -1104,-297 204,106 440,148 653,263 190,102 431,226 526,384zm-8459 15011c-154,-4 -160,-34 -534,-34 130,90 858,227 955,210 181,67 408,110 600,148 278,56 261,157 393,322 356,443 386,387 705,671 -337,60 -744,-34 -1049,82 -209,-81 -1864,8 -2152,32 -161,14 -377,2 -544,2 -234,-1 -362,24 -546,34 -208,12 -769,-25 -937,18l1196 201c456,64 868,106 1330,171 448,63 848,107 1301,166 221,29 1162,196 1341,127 249,123 567,67 830,157l98 489c-283,37 -606,115 -826,172 -172,-66 -2546,379 -2934,444l-732 120c-175,27 -147,-20 -223,85 128,-11 91,-28 238,-35 91,-4 177,5 268,-5 481,-52 3296,-202 3554,-301 236,42 563,-17 815,-31l248 547c-266,101 -527,276 -756,405 -135,-33 -288,111 -523,227 -301,149 -3572,1774 -3742,1922 141,-12 406,-140 559,-192 349,-118 3921,-1415 3979,-1480l683 -258 181 714c-45,32 -101,71 -149,119l-135 176c-83,2 -14,-29 -112,57 -38,33 -64,67 -101,105l-1109 1109c-88,88 -141,136 -213,230 -72,94 -143,146 -205,239 230,-53 656,-324 887,-444 99,-52 185,-92 296,-147 208,-105 392,-197 591,-296 99,-49 191,-90 296,-148 119,-65 147,-121 318,-125 30,111 98,161 181,229 96,79 130,107 221,189 128,114 334,252 485,333 -26,97 -196,387 -258,492 -60,100 -246,439 -253,531 79,-53 171,-142 262,-215 375,-302 514,-489 898,-638 306,37 507,15 746,-100 -92,-210 -277,-494 -403,-723 -141,-258 -247,-490 -371,-754 -250,-531 -392,-1030 -537,-1657 -70,752 205,1416 253,1827 -254,-366 -571,-1304 -671,-1807 -44,-221 -54,-527 -97,-710 -69,1165 26,1048 123,1975 -373,-339 -764,-1264 -875,-1849 -50,-262 -46,-537 -104,-785 32,139 -213,1359 -166,1775 2,32 9,38 -3,85 -20,74 -29,61 -53,95 -187,-1073 -327,-1817 -261,-3000l-95 -9c-10,-158 -6,-340 58,-472l112 14c41,-173 73,-447 146,-619l-145 -9 97 -336 137 48c77,-78 134,-244 161,-356l-146 -21c-45,-116 -19,-116 70,-334 286,-699 611,-1327 1004,-1963 1203,-1943 2475,-3051 3860,-4671l777 -920c51,-132 178,-320 255,-471 84,-163 157,-302 235,-480 139,-317 291,-686 330,-1076l-36 1c-62,271 -201,488 -318,695 -45,39 -110,202 -190,286 -121,342 -995,1469 -1221,1618 -172,297 -575,669 -814,904 0,-412 429,-1974 657,-2482 206,-459 882,-1676 1297,-1865 48,-105 11,-64 108,-138 82,-105 314,-309 415,-339 230,384 301,815 951,1292 111,81 127,93 166,281 65,315 388,1647 221,1873l-1203 1020c-58,48 -68,68 -118,119 -349,354 -316,251 -767,801 -534,651 -983,1480 -1214,2334 -78,287 -305,1231 -222,1481l224 -6c-103,-793 522,-2248 852,-2802 253,-424 1354,-1802 1758,-1900 -56,145 -1138,1383 -1530,2381 -54,251 -771,2012 -587,2356 177,7 67,61 123,-73 11,-28 21,-134 23,-143l236 -825c224,-630 400,-905 826,-1324 248,-245 755,-521 989,-1135 -187,72 -300,229 -536,307 198,-316 441,-534 692,-783 66,-92 522,-624 605,-647 97,885 -99,2198 -312,3014 -362,1382 -864,2000 -970,2332 71,53 164,124 241,158 289,-388 591,-964 831,-1432 691,-1349 1132,-3195 884,-4743 -43,-271 -184,-698 -144,-954 285,589 533,1580 603,2338 181,1331 -33,1565 11,2139 376,-1031 210,-2705 -45,-3812 -63,-269 -319,-856 -320,-1077 35,53 71,88 119,154 309,422 523,839 693,1353 354,1067 209,1257 345,1941 100,-926 38,-1700 -317,-2550 -99,-238 -214,-435 -305,-642 485,347 1083,1640 1221,2180 139,-339 -597,-1796 -952,-2286 -63,-87 -178,-232 -243,-304 -92,-102 -180,-168 -267,-276 194,48 354,178 499,283l424 337c-330,-560 -1047,-944 -1686,-1359 -882,-575 -1053,-1454 -1255,-1748 19,541 151,678 240,1081 -248,-163 -474,-637 -579,-956 -162,-711 -259,-586 126,-1225 107,-177 200,-344 296,-524 71,-136 180,-396 267,-506l90 -229c230,-493 378,-1384 407,-1989 192,242 134,813 152,1053l17 65c198,-908 39,-1232 -151,-2086 -98,-717 -305,-1224 -47,-1985 201,-590 523,-1001 855,-1364 321,-351 754,-707 1216,-1003 263,-169 1180,-744 1444,-772 -65,94 -279,247 -392,358 -249,246 -790,961 -891,1234 155,-155 294,-280 439,-424l438 -428c63,-135 186,-249 325,-345 144,-100 236,-160 412,-239 314,-139 696,-198 1063,-231 163,0 308,-32 483,-27 149,4 320,52 445,33 782,131 1009,117 1636,647l159 190 860 870c-57,-306 -473,-585 -576,-894 189,18 343,221 456,335 396,402 679,907 826,1496 110,439 155,898 72,1366 -67,382 -282,866 -490,1037 -122,227 -477,494 -693,683 -247,218 -502,410 -739,627 -342,313 -1206,1597 -946,1627 104,-196 141,-314 275,-489 415,-538 663,-743 1138,-1178 133,-183 799,-646 1062,-990 760,-995 490,-1186 644,-1367 -3,-745 -21,-1082 -239,-1740l-417 -645c-208,-294 -314,-364 -471,-552 -528,-397 -451,-134 -671,-420 -154,-200 -406,-368 -516,-528 250,47 1210,629 1469,803 460,309 894,662 1235,1051 1094,1249 986,1982 689,3392 -86,673 -376,1250 -103,1962l-1 -129c35,-330 -23,-733 148,-983 67,356 74,687 150,1054 60,288 155,678 267,922l96 220c147,326 368,765 558,1039 309,445 332,629 139,1200 -69,321 -367,807 -598,998 109,-423 231,-553 240,-1085 -139,181 -249,717 -675,1223 -62,73 -132,117 -194,181 -86,89 -89,108 -192,184 -815,603 -1250,686 -1871,1500 83,-42 148,-113 228,-176 228,-180 421,-338 717,-455 -82,106 -185,171 -277,281 -238,282 -498,644 -678,991 -117,226 -621,1400 -540,1642 151,-611 822,-1903 1192,-2182 -62,179 -194,408 -275,612 -87,215 -161,437 -215,672 -90,388 -233,1276 -83,1637 98,-239 42,-925 376,-1821 99,-267 217,-513 344,-748 72,-134 126,-224 206,-337l219 -299c-3,212 -259,825 -319,1083 -89,381 -161,804 -207,1192 -119,979 -43,1642 149,2546 39,-315 -165,-1474 39,-2072 42,-578 269,-1647 510,-2165 56,-122 276,-514 259,-572 -9,88 -100,332 -132,432 -338,1055 -319,2550 -49,3606 487,1908 1362,3112 1395,3262l-195 52c-143,107 -451,193 -666,239 -57,-153 -281,-473 -378,-571 -298,-302 -189,-266 -643,-251 -167,-290 -599,-1006 -703,-1336 -224,-234 -538,-1133 -715,-1507 -483,-1023 -910,-3406 -806,-4610 14,-160 35,-334 62,-492 13,-75 34,-154 41,-228l41 -261 66 -327c-432,625 -460,1892 -394,2749 128,1656 626,3660 1325,5125 181,378 355,712 551,1051l602 976c-261,60 -324,-130 -577,-216 -264,-90 -395,10 -657,-161 -258,-169 -1186,-1545 -1388,-1891l-500 -932c-56,-90 -10,-39 -85,-94 101,573 571,1494 824,1983 245,475 538,862 852,1263 109,139 218,234 309,377l-92 30 -315 87 -170 18c-121,60 -370,100 -504,135 -264,4 -188,92 -503,-357l-694 -1113c-62,-111 -102,-184 -157,-286 -165,-307 -146,-142 -173,-251 -3,-12 -13,-13 -19,-20 54,1058 613,1753 772,2174 -851,90 -1693,299 -2588,335 245,-571 964,-1419 961,-2507l-50 75c-103,262 -242,462 -379,688 -499,822 -652,1085 -1284,1812l-168 -19c-97,46 -734,50 -881,44l-115 10c-169,-10 -440,19 -591,-25 -8,-3 -23,-1 -29,-14 -6,-13 -20,-8 -29,-15l125 -70c293,-310 630,-540 894,-864 135,-164 267,-306 401,-487 440,-599 1421,-2296 1466,-2987 -132,161 -208,398 -319,585 -488,821 -849,1344 -1412,2103 -116,156 -313,264 -567,323 -347,79 -389,40 -658,227 -173,120 -310,271 -501,377l689 -1008c1462,-2337 2720,-6643 1714,-9188 -18,35 -15,11 -22,74l24 259c73,150 139,717 157,946 98,1249 -319,3523 -812,4599 -96,210 -520,1352 -701,1462 -55,214 -237,516 -338,709 -641,1229 -395,320 -910,797 -125,116 -207,231 -315,401 -122,193 -503,751 -554,917 54,137 410,583 526,1066 -98,-2 -104,-2 -180,-67 -144,-27 -320,-94 -462,-134 -156,-45 -312,-85 -488,-125 -316,-71 -733,-127 -1055,-171 -540,-74 -1856,27 -2080,330 529,67 1078,307 1381,575 247,219 308,220 352,627 30,276 91,610 98,865l-955 -63c-55,-297 -24,-596 -178,-815 -134,-190 -498,-319 -622,-20 -83,199 117,1473 153,1777 46,381 104,1501 305,1716 215,230 516,86 580,-169 67,-264 -45,-673 -68,-941l964 10c76,307 112,818 150,1150 28,256 93,356 -53,531 -625,748 -1830,721 -2288,167 -445,-537 -491,-1205 -581,-2006 -85,-761 -215,-1617 -247,-2343l-63 83c-4,7 -8,16 -12,23 -13,26 -36,95 -46,125 -234,707 -215,1406 -170,2151 223,1002 229,1371 557,2429 79,254 248,610 206,708 423,126 771,271 1244,363 1470,284 2867,76 4235,-371 -349,-289 -220,-172 -1027,7 -1018,225 -2645,282 -3632,-60 -20,-7 -55,-20 -77,-31 -73,-35 -36,-16 -73,-43l3930 -443 1239 -209c133,302 331,272 610,455 -105,52 -240,36 -389,35 478,406 1316,234 1874,14l-282 225c524,-104 1519,-683 1765,-959 -321,165 -635,435 -1027,548 48,-53 71,-82 137,-134 93,-74 81,-45 147,-146 -248,107 -429,245 -726,350 -260,92 -595,178 -899,171 135,-87 431,-171 586,-229 -726,37 -1200,163 -1702,-319 128,-78 633,-147 830,-133 704,310 2400,-574 2815,-885l-989 103c-29,-360 -77,-729 -117,-1086 -52,-451 -181,-522 -635,-502 -65,2 -64,40 -72,47 18,181 63,721 117,849 90,214 140,64 184,291 21,104 43,346 39,451l-1355 147c-65,-497 -105,-467 16,-702 99,-193 15,-523 -21,-756 -76,-497 -120,-1027 -176,-1531 -36,-319 -7,-437 -190,-661 -105,-129 -121,-493 -123,-666 504,-16 1009,3 1516,-24 533,-29 876,-120 1227,219 275,266 411,583 361,1112 -52,542 -395,516 -683,775 1231,111 649,828 948,1241 161,223 99,-51 173,554 109,-50 388,-202 442,-301l-101 -950 1037 -95c43,292 -14,438 205,589 128,36 309,0 428,-24 56,-53 86,-82 122,-183 25,-69 33,-147 29,-228 -61,-1231 -1882,-21 -2070,-1812 -82,-784 314,-1117 916,-1301 631,-193 1256,-249 1799,88l92 905c-146,77 -760,181 -949,164 -23,-295 -41,-526 -292,-578 -290,-60 -465,125 -489,379 -55,602 524,625 1037,686 1075,128 1289,1383 790,2149 36,70 245,200 382,365 90,109 242,289 301,445 104,80 159,47 327,18 253,-44 167,16 510,205 112,61 181,78 261,161 319,-75 573,-176 852,-273 -91,-57 -175,-64 -290,-94l-279 -111c263,-17 521,-52 782,-81 583,-65 670,-113 1241,-506 90,-62 162,-109 264,-181 347,-245 219,-151 177,-194l-194 10c-124,-1134 2,-540 52,-934l-283 -2895c-62,-640 -272,-174 -278,-1158 128,-83 498,-206 670,-277 229,-94 427,-176 648,-273 498,-219 1046,-588 1350,-282 362,365 353,864 423,1453 45,379 203,1331 176,1660 92,30 81,-26 120,-149 22,-69 36,-137 58,-215 198,-716 389,-1715 205,-2434 -36,-140 -88,-273 -157,-389 -101,-170 -222,-261 -247,-313 -166,-5 -358,-136 -552,-166 -654,-101 -1277,312 -1658,343 -22,-160 66,-276 61,-409l-489 215c-58,-69 -98,-262 -137,-367 -346,-945 -869,-1419 -1318,-2087l-71 5c44,159 225,431 315,629 94,206 183,437 274,650 154,357 468,986 529,1343l-536 199c-821,-1419 -1287,-3192 -1198,-5151 90,40 103,76 181,163l430 499c216,261 505,450 697,783 -238,-60 -373,-244 -571,-335 162,369 541,819 884,1059 710,497 840,1228 1158,2050 137,-395 113,-372 -73,-987 -88,-291 -276,-689 -330,-946 -93,-293 -518,-992 -703,-1260 -144,-209 -260,-377 -415,-575 -87,-112 -380,-444 -402,-563 984,623 2191,2282 2415,3514 62,-5 153,-101 212,-151 -111,-801 -842,-2075 -1365,-2602 -141,-144 -220,-267 -378,-407 -73,-64 -152,-121 -221,-189l-828 -740c-635,-558 -748,-219 -377,-1979 52,-245 52,-436 202,-588 253,-255 527,-459 740,-828 76,-133 164,-418 272,-499 85,29 311,235 381,326l105 108c103,128 270,273 390,415 390,458 660,893 912,1476 206,478 661,2082 667,2500 -142,-89 -751,-721 -792,-911 -126,-17 -20,41 -130,-70l-251 -295c-222,-260 -819,-1048 -896,-1308l-113 -174c-125,-112 -291,-469 -348,-668l-29 99c48,306 203,667 317,937 58,139 133,287 200,414 86,163 187,267 238,425 352,591 3437,3713 3640,4212 171,53 376,132 528,172l-1562 -1889c-196,-178 -374,-343 -408,-750 126,55 46,8 143,96l716 612c503,393 1287,861 1608,1430 128,227 418,780 492,1031 -51,-33 -25,-13 -67,-52 -8,-7 -29,-30 -36,-38 -31,-34 -41,-54 -76,-95 -117,-135 -309,-380 -444,-467 88,245 239,362 304,651 629,666 754,1792 720,2931l186 -54 121 390 -335 2c-54,263 -87,542 -144,809 -56,269 -138,535 -200,788l163 56 7 456 -272 -158 -471 1079c104,71 458,140 607,168 -60,304 -174,487 -247,753 116,-107 329,-513 381,-692l142 17 360 86c-23,258 -492,1012 -670,1102l-58 75c-20,-33 -726,-874 -831,-939l-469 626 270 135 165 96c192,96 521,212 649,347 -152,184 -475,473 -710,630 -67,118 -462,342 -613,439 -216,138 -433,269 -671,386 -405,200 -1108,494 -1600,564 -125,29 -512,315 -681,405 425,158 2126,-511 2623,-799 435,-252 1186,-725 1532,-1062 107,-106 377,-366 467,-421l394 205c-84,-140 -197,-220 -273,-347l444 -622c136,-217 255,-531 383,-717l717 154c105,95 2,30 156,75l1174 291c-68,-102 -808,-550 -1002,-672 -129,-80 -45,-69 -158,-45l-46 -46c-6,-6 -14,-14 -21,-21l-629 -394c17,-195 52,-409 73,-603 23,-202 92,-308 267,-351 121,-30 927,74 1052,119 711,128 1877,241 2667,356l902 122c-81,-112 11,-40 -154,-85l-2180 -550c-187,-47 -657,-205 -805,-150 -147,-112 -617,-197 -817,-242 300,-335 451,-376 783,-952 70,-120 113,-241 188,-367l699 -125c276,45 1348,-225 1775,-225l0 -34c-265,0 -471,5 -688,29 -111,13 -225,3 -337,4 -176,2 -192,32 -333,35 -8,6 -19,11 -26,14 -214,95 -401,1 -967,48 74,-509 163,-345 223,-1336 195,-108 427,-144 584,-237l76 -52c120,31 205,-18 317,-64 110,-45 202,-73 302,-108l1700 -621c156,-55 96,3 138,-100 -81,39 -457,96 -594,122l-1795 355c-10,8 -23,12 -33,15l-725 129c-64,-509 -177,-822 -279,-1282 154,-45 270,-133 404,-189l-424 108 -123 -262c-143,-353 -613,-1192 -614,-1194 -126,-418 -26,-1491 -639,-2978 -179,-434 -783,-1599 -1346,-1536 -692,78 22,1256 27,2255l-1334 -1137c-348,-360 152,-1577 296,-1960 493,-1321 695,-2714 18,-4017 -443,-854 -1639,-1990 -3126,-1752 -682,110 -990,348 -1435,712 -519,425 -869,1028 -877,1897 -303,-185 -658,-1020 -781,-1530 -181,-751 -167,-1347 -137,-2120 -84,46 -114,85 -197,128 397,-805 449,-1658 212,-2630 -211,-868 -693,-1241 -1394,-1709 -304,-203 -684,-355 -1012,-558 -1122,-695 -1448,-1236 -3336,-1265 -1717,-27 -2305,669 -3341,1293 -551,333 -1412,685 -1857,1247 -305,387 -351,441 -502,1033 -108,423 -166,943 -129,1404 46,562 157,752 332,1197l-179 -104c-21,830 81,1182 -152,2121 -100,404 -451,1336 -772,1482 -26,-1413 -1163,-2455 -2345,-2609 -1575,-204 -2595,869 -3103,1796 -1362,2483 1030,5209 295,5961l-1299 1128c-63,-441 242,-1231 310,-1670 124,-795 -558,-746 -998,-150 -1475,1997 -933,3488 -1510,4495 -548,954 -900,2019 -818,3173 59,843 208,958 408,1566 -175,-4 -347,-28 -511,-29 -183,-1 -253,56 -410,16 -142,-35 -75,-25 -115,-52z"/>
   <path class="fil1" d="M19050 14530c-1,566 -247,1296 -291,1825 -68,764 -1084,3623 -1478,3986 -40,-82 244,-840 293,-1019 268,-966 580,-2599 699,-3565 110,-886 80,-2828 713,-2824 679,4 78,1576 64,1597zm1813 1740c-32,-515 -282,-1252 -262,-1767 -5,-8 -13,-30 -15,-25l-48 -100c-12,-34 -27,-101 -36,-136 -24,-98 -42,-177 -64,-276 -320,-1470 447,-1077 602,-708 191,452 265,1890 340,2490 104,838 241,1605 418,2415 85,391 165,751 269,1130 50,183 345,951 297,1057 -229,-252 -735,-1479 -882,-1902 -221,-633 -505,-1481 -619,-2178zm885 -6213c-69,80 -75,-32 -138,269 -29,138 -78,213 -180,265 -236,121 -504,-47 -513,-294 -11,-362 267,-321 460,-409 134,-61 115,-185 289,-126 105,36 167,198 82,295zm-3885 -67c-37,-131 79,-249 197,-237 129,14 103,103 285,157 141,41 484,122 383,469 -67,233 -571,481 -699,-116 -49,-228 -144,-195 -166,-273zm4308 -239c-39,-154 170,-227 215,-91 62,187 -186,204 -215,91zm-4912 0c-49,-177 169,-219 218,-91 62,165 -185,211 -218,91zm5766 -1084l157 -1 -4 200 -168 -13 15 -186zm-6552 4c255,-42 258,221 -10,183l10 -183zm2918 -7183c-102,91 -392,250 -547,340 -206,119 -390,214 -531,357 -648,657 -790,1820 -610,2740 59,302 311,1086 510,1187 -149,-55 -375,-286 -482,-428 -440,-589 -530,-1532 -542,-2267 -24,29 -25,25 -50,79 -71,149 -192,922 100,1927 125,430 517,1260 811,1479 -779,-446 -1361,-1544 -1453,-2827l-82 204c-269,1118 263,2022 968,2812 573,642 1491,1770 1383,2739l-116 -390c-101,-348 -446,-702 -648,-919 -142,-152 -606,-665 -781,-744 20,159 703,1027 774,1593 -163,-162 -468,-700 -810,-1090 -301,-342 -582,-669 -893,-985 -293,-299 -619,-594 -841,-1033 -193,-381 -353,-1083 -247,-1567 61,102 87,272 138,410 50,134 106,252 169,383 42,-55 33,11 38,-124 28,-722 45,-964 235,-1617l15 -143c-91,50 1,-14 -93,67l-160 180c-1415,1804 -712,2378 -649,3885 17,414 -96,1297 -373,1430 -9,-152 -53,-355 39,-458 -18,-240 40,-811 -152,-1053 -29,605 -177,1496 -407,1989l990 -36c-73,-80 -86,-104 -211,-137 -133,-69 -254,-102 -355,-172 339,-176 1627,156 2174,553 766,558 1822,1924 2241,1117 121,-232 196,-473 227,-769 49,80 94,177 165,253 26,151 57,203 50,373 93,132 56,486 39,667 157,-64 16,-53 172,-101 0,399 -61,730 -299,921 -403,322 -673,52 -958,78 -151,192 -1624,683 -2046,634 -666,-77 -1067,-877 -1051,-1639l-86 -78c-63,438 -101,768 -106,1239 -295,-444 -184,-840 -237,-1391 -186,397 -125,603 -175,1041 -333,-545 -71,-1115 22,-1664 -213,162 -152,483 -313,612 -251,-439 191,-1004 205,-1121 -115,-89 -380,-172 -538,-151 -87,110 -196,370 -267,506 -96,180 -189,347 -296,524 -385,639 -288,514 -126,1225 162,-220 79,-1014 410,-1357 5,660 238,1268 510,1741 604,1047 1760,1364 2742,2889 148,229 249,521 386,725 91,-446 348,-2433 324,-2813l-24 -259c7,-63 4,-39 22,-74 1006,2545 -252,6851 -1714,9188l-689 1008c191,-106 328,-257 501,-377 269,-187 311,-148 658,-227 254,-59 451,-167 567,-323 563,-759 924,-1282 1412,-2103 111,-187 187,-424 319,-585 -45,691 -1026,2388 -1466,2987 -134,181 -266,323 -401,487 -264,324 -601,554 -894,864 364,-88 1427,-1272 1717,-1680 154,-217 303,-498 457,-698 -112,547 -945,1698 -1380,2198 -126,144 -194,142 -270,304l115 -10 692 -678c1041,-1264 865,-1110 1730,-2393 -110,776 -1237,2659 -1631,3006l90 21c390,-380 1537,-1789 1721,-2479l110 -2 50 -75c3,1088 -716,1936 -961,2507 895,-36 1737,-245 2588,-335 -159,-421 -718,-1116 -772,-2174 6,7 16,8 19,20 27,109 8,-56 173,251 55,102 95,175 157,286l694 1113c315,449 239,361 503,357 -31,-159 -226,-397 -319,-544 -110,-175 -225,-377 -317,-570 -122,-256 -460,-957 -498,-1248l1638 2227 170 -18c-35,-138 -437,-692 -530,-853 -125,-218 -381,-666 -443,-897 426,731 1281,1650 1288,1663l92 -30c-91,-143 -200,-238 -309,-377 -314,-401 -607,-788 -852,-1263 -253,-489 -723,-1410 -824,-1983 75,55 29,4 85,94l500 932c202,346 1130,1722 1388,1891 262,171 393,71 657,161 253,86 316,276 577,216l-602 -976c-196,-339 -370,-673 -551,-1051 -699,-1465 -1197,-3469 -1325,-5125 -66,-857 -38,-2124 394,-2749l-66 327c-8,176 44,556 61,770 44,524 172,1631 283,2069l66 -88c86,-149 175,-400 326,-630 348,-529 588,-781 1038,-1212 176,-168 412,-341 615,-511 420,-351 760,-628 1078,-1141 255,-412 512,-1169 496,-1762 328,320 301,1230 430,1340 193,-571 170,-755 -139,-1200 -190,-274 -411,-713 -558,-1039 -197,6 -397,85 -552,142 10,33 488,852 212,1122 -102,-51 -72,-84 -127,-255 -38,-121 -85,-209 -145,-279 136,721 232,795 16,1573 -68,-388 -40,-697 -214,-1014 -28,530 40,1048 -240,1436 -3,-302 16,-1038 -109,-1260l-76 99c-9,755 -366,1501 -1019,1596 -647,93 -1546,-386 -2052,-585 -3,-2 -82,-47 -95,-55 -814,287 -1198,-185 -1196,-995 128,41 53,50 189,111 -32,-195 -61,-371 16,-530l60 -516c4,-6 12,-24 15,-19 4,10 22,-28 30,-38l122 -189c109,499 215,1236 842,955 404,-182 1102,-893 1607,-1294 160,-126 400,-249 620,-334 290,-112 1297,-374 1574,-233 -103,67 -200,117 -348,144 -77,72 -98,89 -202,123 91,73 878,76 976,75 -112,-244 -207,-634 -267,-922 -76,-367 -83,-698 -150,-1054 -171,250 -113,653 -148,983 96,112 57,359 47,515 -293,-199 -381,-960 -360,-1425 46,-1021 525,-1874 -118,-3103 -180,-345 -526,-799 -748,-1020 -32,35 -33,-56 -35,99 218,658 236,995 239,1740 40,20 22,75 112,-127 35,-76 54,-123 81,-194 54,-140 85,-335 144,-439 142,485 -58,1178 -251,1562 -337,673 -1141,1302 -1732,2022 -131,160 -271,335 -398,522 -91,135 -285,447 -378,536 17,-366 436,-1041 667,-1378 113,-165 93,-121 49,-147 -475,435 -723,640 -1138,1178 -134,175 -171,293 -275,489 -29,111 -45,252 -117,338 -119,-924 853,-2069 1382,-2703 309,-369 609,-700 840,-1209 171,-377 330,-1360 92,-1747 -66,128 -126,647 -180,844 -180,653 -681,1543 -1196,1825 70,-139 158,-236 240,-363 79,-122 128,-214 196,-349 128,-253 223,-509 300,-795 100,-372 292,-1543 23,-1934 5,848 -178,2326 -997,2720 179,-414 343,-410 487,-1236 152,-876 40,-2038 -610,-2662 -444,-425 -857,-470 -1025,-713 -125,19 -296,-29 -445,-33 -175,-5 -320,27 -483,27z"/>
   <path class="fil2" d="M32293 15653l0 0zm-29184 8394c40,27 -27,17 115,52 157,40 227,-17 410,-16 164,1 336,25 511,29 -200,-608 -349,-723 -408,-1566 -82,-1154 270,-2219 818,-3173 577,-1007 35,-2498 1510,-4495 440,-596 1122,-645 998,150 -68,439 -373,1229 -310,1670l1299 -1128c735,-752 -1657,-3478 -295,-5961 508,-927 1528,-2000 3103,-1796 1182,154 2319,1196 2345,2609 321,-146 672,-1078 772,-1482 233,-939 131,-1291 152,-2121l179 104c-175,-445 -286,-635 -332,-1197 -37,-461 21,-981 129,-1404 151,-592 197,-646 502,-1033 445,-562 1306,-914 1857,-1247 1036,-624 1624,-1320 3341,-1293 1888,29 2214,570 3336,1265 328,203 708,355 1012,558 701,468 1183,841 1394,1709 237,972 185,1825 -212,2630 83,-43 113,-82 197,-128 -30,773 -44,1369 137,2120 123,510 478,1345 781,1530 8,-869 358,-1472 877,-1897 445,-364 753,-602 1435,-712 1487,-238 2683,898 3126,1752 677,1303 475,2696 -18,4017 -144,383 -644,1600 -296,1960l1334 1137c-5,-999 -719,-2177 -27,-2255 563,-63 1167,1102 1346,1536 613,1487 513,2560 639,2978 1,2 471,841 614,1194l123 262 424 -108c-134,56 -250,144 -404,189 102,460 215,773 279,1282l725 -129c10,-3 23,-7 33,-15 -167,0 -70,60 -126,-317 -159,-1079 -571,-1824 -1243,-2646 -276,-337 -151,-179 -205,-682 -108,-1003 -247,-1751 -807,-2640 -337,-535 -1408,-1750 -2011,-1042 -414,484 6,1130 25,1356 -123,-90 -387,-443 -334,-742 45,-259 595,-1474 746,-2565 209,-1515 -86,-2657 -719,-3551 -440,-621 -1082,-1218 -1834,-1441 -601,-177 -1287,-156 -1904,57 -366,127 -1046,586 -1361,824 -102,77 -214,160 -301,244 -106,102 -181,204 -298,282 -26,-113 -71,-193 -110,-333 -192,-687 -256,-1228 -114,-1939 53,-268 184,-524 224,-696 -155,104 -185,225 -307,307 21,-252 226,-714 123,-1420 -77,-527 -157,-837 -322,-1247 -66,-164 -167,-378 -253,-531 -52,-91 -304,-265 -424,-361 -522,-421 -880,-613 -1478,-877 -424,-188 -595,-402 -911,-659 -420,-341 -1008,-682 -1538,-815 -914,-230 -1839,-282 -2759,20 -594,195 -1078,434 -1523,831 -1021,913 -1462,659 -2593,1706 -207,191 -317,449 -440,754 -256,638 -364,1258 -303,1986 26,303 81,438 138,681 -116,-84 -199,-303 -341,-341 673,1404 63,2581 34,2934 -117,-31 -354,-309 -595,-497 -297,-233 -1014,-701 -1354,-829 -560,-212 -1315,-285 -1895,-95 -1311,430 -2277,1651 -2563,2999 -298,1409 17,2497 440,3775 240,723 399,814 178,1209 -63,113 -158,269 -250,330 58,-249 510,-1177 -146,-1492 -552,-264 -1072,305 -1347,580 -840,839 -1203,1990 -1303,3371 -42,580 6,236 -349,675 -372,460 -698,1141 -895,1732 -92,278 -143,517 -197,827 -36,213 -89,724 -53,986 15,113 32,352 48,463 57,381 169,942 318,1252l-319 0z"/>
   <path class="fil1" d="M30461 24912c210,-54 225,38 149,180 -144,8 -168,-32 -149,-180zm332 -427c294,-142 428,319 176,423 -272,112 -447,-292 -176,-423zm750 -2655c197,306 336,1290 399,1728 160,-393 56,-1625 22,-2098 456,1085 436,2683 93,3852 -301,1023 -900,2035 -1637,2783 73,-175 286,-456 394,-648 126,-226 230,-438 350,-675 158,-313 481,-1154 469,-1564 -134,427 -346,854 -577,1186 -215,310 -559,707 -832,897 68,-137 247,-373 346,-533 357,-571 610,-1158 800,-1826 137,-482 220,-941 256,-1467 44,-636 -59,-1061 -83,-1635zm174 -582c-13,-89 -36,-141 20,-217 22,-31 77,-67 120,-27 98,94 24,235 -140,244zm-345 -657c28,39 83,58 42,176 -29,79 -36,57 -110,82 -105,-93 -121,-218 68,-258zm-2358 46c-20,-55 -47,-111 -12,-187 18,-42 65,-90 108,-74 78,30 134,235 -96,261zm549 -179c-58,-139 -34,-278 120,-249 59,134 61,232 -120,249zm652 -307c46,133 68,231 -105,245 -58,-107 -37,-108 -3,-208 57,-31 34,-16 108,-37zm716 148c60,109 73,230 -96,258 -41,-156 -51,-210 77,-256 -50,-37 33,6 -79,-47l-244 -64c-111,-23 -246,-49 -374,-39 -496,-191 -1328,186 -1648,408 -295,205 -567,543 -744,862 -49,89 -113,258 -179,321 2,95 -12,50 46,72 112,-89 189,-173 322,-274 106,-80 244,-159 359,-247 -20,-182 -44,-204 101,-267 77,71 19,6 63,89 4,8 6,87 19,47 2,-4 6,16 10,24 403,-131 721,-310 1229,-167 381,107 672,358 840,610 -304,-135 -597,-520 -1277,-437 207,105 1006,4 1321,1109 -114,-272 -556,-797 -962,-761 347,73 647,413 691,803 -142,-171 -380,-560 -593,-607 25,52 146,143 247,313 69,116 121,249 157,389 184,719 -7,1718 -205,2434 -22,78 -36,146 -58,215 -39,123 -28,179 -120,149 -14,242 -274,515 -414,681 -135,160 -322,418 -503,591 -153,156 -162,222 -372,281 49,48 102,35 -43,152l-1011 898c-116,119 -52,38 -221,93 42,43 170,-51 -177,194 -102,72 -174,119 -264,181 -571,393 -658,441 -1241,506 -261,29 -519,64 -782,81l279 111c115,30 199,37 290,94 -279,97 -533,198 -852,273 -225,48 -562,169 -769,40 -191,-119 -380,-315 -618,-318l-369 28c44,59 -22,0 76,76l501 291c-277,1 -978,-148 -1183,-254 -373,-70 -1239,102 -1672,134 -96,28 -51,-28 -57,68 199,26 597,177 843,236 955,229 1941,268 2906,117 605,-96 1157,-259 1683,-469 575,-229 1242,-640 1409,-703 -303,272 -1012,613 -1458,823 -1398,658 -3219,957 -4743,504 -249,-73 -653,-256 -842,-290 -116,-19 -166,62 -241,136 -99,98 -136,113 -240,202 361,244 1392,495 1914,558 778,93 1541,55 2296,-96 1180,-237 2133,-663 3139,-1231 125,-70 283,-183 406,-228 -1751,1391 -3154,1790 -3330,1910 714,-35 2416,-690 2976,-982 446,-232 868,-472 1246,-733 315,-218 1088,-899 1105,-908 -187,337 -586,713 -836,1006 -300,353 -916,896 -1313,1179 -70,50 -99,61 -188,118l-207 161c422,-118 1320,-617 1673,-844 958,-618 694,-497 1311,-1042 74,-64 23,-33 112,-79 -104,203 -406,532 -579,702 -94,92 -44,7 -85,133 299,-183 882,-922 1138,-1224 135,229 -20,227 -122,445 158,-61 360,-192 492,-284 87,-61 139,-104 215,-160 10,-8 114,-90 114,-90 95,-99 34,4 84,-128l-270 -135 469 -626c105,65 811,906 831,939l58 -75c14,-192 112,-392 169,-579 58,-192 96,-402 141,-609l-142 -17c-52,179 -265,585 -381,692 73,-266 187,-449 247,-753 -149,-28 -503,-97 -607,-168l471 -1079 272 158 -7 -456 -163 -56c62,-253 144,-519 200,-788 57,-267 90,-546 144,-809l28 -338c34,-1139 -91,-2265 -720,-2931 -110,-99 -248,-188 -336,-289 -123,-142 -209,-123 -334,-240 -152,-40 -357,-119 -528,-172l-471 -91 -821 -6c-68,-131 -543,-638 -698,-834 -72,-90 -149,-172 -221,-257 -322,-379 -583,-721 -890,-1122 -327,-428 -1465,-2154 -1537,-2505 7,6 15,15 19,20l94 122c205,310 1252,1773 1470,1929 -132,-280 -427,-554 -522,-864 122,88 312,331 425,460 107,124 317,387 429,462 -88,-231 -345,-524 -488,-743 -161,-247 -352,-485 -496,-728 28,-92 -40,-39 67,-55 -51,-158 -152,-262 -238,-425 -67,-127 -142,-275 -200,-414 -114,-270 -269,-631 -317,-937l-115 -198c-81,138 -190,240 -300,385 -217,287 -655,1072 -617,1369 30,234 1020,1077 1307,1366 788,794 1618,1826 2013,3276 -104,122 -201,161 -273,312 547,-299 729,-536 1585,-476 -9,4 -21,8 -28,10 -8,2 -20,7 -30,9l-302 40c-281,40 -644,152 -849,304 819,-260 1353,-344 2239,61l-156 -16z"/>
   <path class="fil1" d="M9495 9130c128,-134 310,42 174,174 -118,115 -291,-51 -174,-174zm389 -470c366,-205 553,344 235,515 -389,209 -633,-293 -235,-515zm-1414 749c-19,229 -595,1109 -444,2535 63,597 439,1982 794,2238 19,-292 -147,-618 -223,-897 -227,-826 -170,-1078 67,-1882 174,-592 319,-700 336,-740 23,222 -203,785 -67,952l187 -398c12,-151 40,-239 111,-340 88,-125 140,-106 86,-218 -164,15 -59,11 -97,-21 745,-80 1374,665 1553,1217 351,1080 -405,1785 -515,2066 64,163 -568,907 -677,1028 -298,329 -600,560 -950,858 -456,387 -1033,811 -1450,1212 -160,154 -351,298 -480,452 -19,125 -84,175 -144,307 159,-64 616,-575 935,-725 -58,215 -555,560 -608,824 76,-63 88,-103 159,-178l851 -855c71,-71 107,-97 179,-163 65,-60 97,-113 162,-178l1253 -1136c109,-104 68,-108 194,-170 -111,194 -282,381 -427,552 -159,187 -282,347 -438,517l-2010 2289c-381,446 -319,422 -618,829l-219 531c198,-146 1140,-1490 1356,-1504 0,62 -489,761 -579,903 -610,955 -1301,2298 -1091,3537 121,-314 70,-720 255,-1053 16,606 9,1069 83,1667l299 55 182 -419c180,-427 -222,-534 -118,-1546 94,-917 678,-1730 1204,-2384 77,-95 199,-209 281,-297 508,-540 884,-698 1421,-1277 64,-69 91,-108 132,-149 78,-233 346,-624 479,-877 733,-1391 270,-1320 1157,-2835 998,-1704 1169,-2311 680,-4122l151 105c-44,-227 -197,-462 -294,-683 -95,-158 -336,-282 -526,-384 -213,-115 -449,-157 -653,-263 514,-9 724,165 1104,297 10,-30 69,36 -25,-80 -63,-77 -32,-29 -96,-78 -87,-66 -86,-67 -148,-154 -590,-147 -1169,-120 -1685,119 -232,107 -421,247 -589,399 -115,102 -393,382 -480,517z"/>
   <path class="fil2" d="M19123 30453c185,80 356,200 570,293 217,94 397,154 636,216 589,152 973,99 1548,171 -1708,111 -1733,159 -3622,-207l868 -473zm1107 -798c37,-154 -36,-41 85,-149 41,-36 60,-40 117,-69 6,-96 -39,-40 57,-68 280,-217 719,-433 1094,-537 229,-63 348,-42 426,-128 -868,53 -1566,541 -2109,932 -402,288 -1344,1035 -1895,1088 185,-89 334,-179 500,-289 -534,174 -969,434 -1724,351 263,-32 452,-131 620,-167 -822,176 -1717,41 -2399,-440 -342,-241 -465,113 -1072,114 167,-109 462,-116 618,-248l-3930 443c37,27 0,8 73,43 22,11 57,24 77,31 987,342 2614,285 3632,60 807,-179 678,-296 1027,-7 -1368,447 -2765,655 -4235,371 -473,-92 -821,-237 -1244,-363 -158,85 -191,168 -417,250 -239,115 -440,137 -746,100 155,248 1702,586 1935,624 868,143 958,126 1784,127 1142,1 2227,-228 3228,-559 1021,-337 111,-83 1278,-57 242,5 104,22 263,70l-26 -61 690 -87c79,-220 597,37 789,102 1506,518 3187,764 4789,585 968,-108 1359,-321 1764,-382 -53,4 -357,178 -480,231 -871,369 -1519,396 -1788,494 876,90 2253,-181 3119,-460 269,-86 655,-279 875,-322 299,-82 1015,-549 1276,-735 212,-150 1039,-772 1108,-926 41,-126 -9,-41 85,-133 173,-170 475,-499 579,-702 -89,46 -38,15 -112,79 -617,545 -353,424 -1311,1042 -353,227 -1251,726 -1673,844l207 -161c89,-57 118,-68 188,-118 397,-283 1013,-826 1313,-1179 250,-293 649,-669 836,-1006 -17,9 -790,690 -1105,908 -378,261 -800,501 -1246,733 -560,292 -2262,947 -2976,982 176,-120 1579,-519 3330,-1910 -123,45 -281,158 -406,228 -1006,568 -1959,994 -3139,1231 -755,151 -1518,189 -2296,96 -522,-63 -1553,-314 -1914,-558 104,-89 141,-104 240,-202 75,-74 125,-155 241,-136z"/>
   <path class="fil1" d="M29906 9141c-240,246 -694,-97 -500,-399 177,-275 573,-119 556,343 104,-4 148,2 219,46 9,120 12,232 -132,207 -132,-23 -83,-98 -143,-197zm-1485 -768c-56,106 -87,98 -174,167 -21,16 -72,59 -83,81 -44,85 -72,21 0,71 409,-185 581,-273 1113,-322 -197,171 -640,128 -1181,624l-300 655c114,66 12,6 119,0 2,0 11,-3 16,-1 -481,1909 -299,2302 688,4082 924,1667 405,1353 1133,2791l471 871c491,736 1114,786 2116,2105 124,164 491,654 563,870l447 -170c4,-215 -581,-1103 -755,-1361 -81,-120 -261,-317 -266,-447 216,157 502,504 709,751 207,245 429,590 651,808l-249 -580c-205,-359 -558,-816 -839,-1086l-460 -495c-192,-209 -2155,-2492 -2240,-2678l1843 1709c327,306 864,925 1050,1092 -45,-243 -585,-668 -618,-839 54,50 139,89 225,150l710 573 -105 -212c-23,-31 -42,-71 -68,-109 -43,-60 -66,-83 -115,-131 -797,-779 -1978,-1596 -2725,-2358 -92,-95 -766,-910 -706,-1058 -59,-183 -344,-429 -501,-908 -126,-385 -131,-795 -4,-1181 149,-453 608,-950 989,-1126 197,-91 670,-59 458,-55 -39,125 15,116 97,240 60,92 81,172 89,299 60,174 168,301 214,466 58,-290 -59,-660 -73,-964 276,416 487,1046 530,1649 50,725 -303,1195 -361,1811 375,-254 731,-1584 792,-2218 145,-1488 -366,-2119 -444,-2504 -117,-285 -735,-783 -1072,-942 -525,-249 -1085,-256 -1684,-120z"/>
   <path class="fil1" d="M8085 27377c-22,-282 205,-223 247,-109 68,181 -107,225 -247,109zm-142 -566c-71,-418 498,-469 563,-93 70,406 -512,395 -563,93zm398 -1717c-140,-122 -118,-295 65,-267 126,18 201,264 -65,267zm245 -882c358,-142 515,430 218,540 -365,137 -582,-396 -218,-540zm1797 -1094c175,-114 276,120 142,213 -149,103 -292,-115 -142,-213zm521 -340c385,-141 474,425 182,537 -365,140 -560,-400 -182,-537zm-4221 5387c-47,-416 198,-1636 166,-1775 58,248 54,523 104,785 111,585 502,1510 875,1849 -97,-927 -192,-810 -123,-1975 43,183 53,489 97,710 100,503 417,1441 671,1807 -48,-411 -323,-1075 -253,-1827 145,627 287,1126 537,1657 124,264 230,496 371,754 126,229 311,513 403,723 226,-82 259,-165 417,-250 42,-98 -127,-454 -206,-708 -328,-1058 -334,-1427 -557,-2429 -67,-229 -101,-886 -99,-1187 9,-1064 316,-2077 1284,-2543 1144,-551 3210,-129 4200,387 107,-9 38,45 74,-28 -72,-42 -7,26 -84,-79 -93,-125 -24,-5 -58,-116 -156,-146 -269,-292 -466,-450 -1014,-810 -2296,-1067 -3586,-762 -731,172 -904,321 -1366,461l1050 -552c-1175,171 -2244,1270 -2426,2514 -26,-410 181,-789 269,-1129l-72 87c-2,2 -46,76 -51,86 -199,379 -314,993 -345,1412 -76,999 85,1255 103,1907 -285,-1323 -426,-2947 559,-4061 174,-196 681,-629 956,-699 43,-59 -7,-10 73,-80 29,-26 27,-22 60,-44 47,-33 77,-51 123,-79l844 -389c107,-50 32,-13 79,-45 -1044,59 -1997,689 -2451,1534 -100,185 -326,710 -344,905 -77,-399 38,-595 39,-926 -200,319 -299,847 -347,1288 -62,575 5,991 7,1537 -256,-303 -326,-749 -387,-1210 -95,117 -121,533 -142,711 -30,248 -45,479 -62,725 -17,253 -24,510 -22,764 0,17 20,792 68,710 3,-5 11,21 18,30z"/>
   <path class="fil2" d="M12705 12689c114,17 41,-110 165,246 121,349 384,487 316,736l36 -1c184,-62 712,894 769,1010 355,717 297,802 -165,1238l-939 903c-1145,1159 -2006,2514 -2193,4258 -74,689 -459,502 -1179,665 -117,26 -604,180 -648,170 -362,126 -642,279 -948,482 -293,194 -471,417 -701,642 -104,150 -232,443 -381,568 -27,112 -84,278 -161,356 -15,171 -35,147 -89,297 -73,172 -105,446 -146,619 33,115 -28,386 -75,467 -66,1183 74,1927 261,3000 24,-34 33,-21 53,-95 12,-47 5,-53 3,-85 -7,-9 -15,-35 -18,-30 -48,82 -68,-693 -68,-710 -2,-254 5,-511 22,-764 17,-246 32,-477 62,-725 21,-178 47,-594 142,-711 61,461 131,907 387,1210 -2,-546 -69,-962 -7,-1537 48,-441 147,-969 347,-1288 -1,331 -116,527 -39,926 18,-195 244,-720 344,-905 454,-845 1407,-1475 2451,-1534 -47,32 28,-5 -79,45l-844 389c-46,28 -76,46 -123,79 -33,22 -31,18 -60,44 -80,70 -30,21 -73,80l30 1c686,-320 1257,-570 2153,-550 676,16 1252,212 1812,525l183 147c29,40 19,34 82,74 15,10 73,34 94,43 290,134 457,315 636,482 124,116 341,310 385,464 34,111 -35,-9 58,116 77,105 12,37 84,79 -36,73 33,19 -74,28 76,65 82,65 180,67 -116,-483 -472,-929 -526,-1066 -110,-44 -38,-6 -102,-65 -23,-22 -37,-49 -60,-80 -135,-184 -370,-288 -337,-419 -120,-20 -105,-29 -157,-119 -77,-34 -170,-105 -241,-158 -53,-60 -32,-39 -116,-94 -18,-11 -84,-52 -126,-77 -80,-49 -155,-86 -259,-129l-336 -174c54,-803 1094,-2108 1440,-2563 59,-229 79,-631 94,-882 7,-136 135,-710 -20,-780 -251,249 -494,467 -692,783 236,-78 349,-235 536,-307 -234,614 -741,890 -989,1135 -426,419 -602,694 -826,1324l-236 825c-2,9 -12,115 -23,143 -56,134 54,80 -123,73 -184,-344 533,-2105 587,-2356 -148,159 -186,330 -279,528 -431,924 -320,1280 -445,1807l-356 -14 -224 6c-83,-250 144,-1194 222,-1481 231,-854 680,-1683 1214,-2334 451,-550 418,-447 767,-801 50,-51 60,-71 118,-119l1203 -1020c167,-226 -156,-1558 -221,-1873 -39,-188 -55,-200 -166,-281 -650,-477 -721,-908 -951,-1292 -101,30 -333,234 -415,339z"/>
   <path class="fil1" d="M15742 17670c-63,139 -88,523 -128,722 -304,1491 -993,3032 -1889,4188 -33,131 202,235 337,419 23,31 37,58 60,80 64,59 -8,21 102,65 51,-166 432,-724 554,-917 108,-170 190,-285 315,-401 515,-477 269,432 910,-797 101,-193 283,-495 338,-709 162,-563 872,-2445 803,-2964 -138,-540 -736,-1833 -1221,-2180 91,207 206,404 305,642 355,850 417,1624 317,2550 -136,-684 9,-874 -345,-1941 -170,-514 -384,-931 -693,-1353 -48,-66 -84,-101 -119,-154 1,221 257,808 320,1077 255,1107 421,2781 45,3812 -44,-574 170,-808 -11,-2139z"/>
   <path class="fil1" d="M22496 17384c-11,689 630,2312 824,2979 104,330 536,1046 703,1336 454,-15 345,-51 643,251 97,98 321,418 378,571 215,-46 523,-132 666,-239 -402,-515 -828,-1362 -1122,-2063 -333,-793 -545,-1597 -666,-2552 -204,598 0,1757 -39,2072 -192,-904 -268,-1567 -149,-2546 46,-388 118,-811 207,-1192 60,-258 316,-871 319,-1083l-219 299c-80,113 -134,203 -206,337 -127,235 -245,481 -344,748 -334,896 -278,1582 -376,1821 -150,-361 -7,-1249 83,-1637 54,-235 128,-457 215,-672 81,-204 213,-433 275,-612 -370,279 -1041,1571 -1192,2182z"/>
   <path class="fil2" d="M28304 20342c-12,79 -155,348 -300,352l-595 -1468c54,257 242,655 330,946 186,615 210,592 73,987 -318,-822 -448,-1553 -1158,-2050 -343,-240 -722,-690 -884,-1059 198,91 333,275 571,335 -192,-333 -481,-522 -697,-783 -111,-8 -60,-11 -43,336 17,350 45,1032 119,1327 449,668 972,1142 1318,2087 39,105 79,298 137,367l489 -215c5,133 -83,249 -61,409 381,-31 1004,-444 1658,-343 194,30 386,161 552,166 -10,-90 39,-72 -196,-178 -614,-278 -1128,-135 -1688,126 -98,45 -138,81 -239,130 -58,-22 -44,23 -46,-72 66,-63 130,-232 179,-321 177,-319 449,-657 744,-862 320,-222 1152,-599 1648,-408 128,-10 263,16 374,39l244 64c112,53 29,10 79,47l19 -2 156 16c-886,-405 -1420,-321 -2239,-61 205,-152 568,-264 849,-304l302 -40c10,-2 22,-7 30,-9 7,-2 19,-6 28,-10 -856,-60 -1038,177 -1585,476 72,-151 169,-190 273,-312 -395,-1450 -1225,-2482 -2013,-3276 -287,-289 -1277,-1132 -1307,-1366 -38,-297 400,-1082 617,-1369 110,-145 219,-247 300,-385l115 198 29 -99c-112,-321 127,-400 293,-819 132,-330 18,-229 163,-254 -70,-91 -296,-297 -381,-326 -108,81 -196,366 -272,499 -213,369 -487,573 -740,828 -150,152 -150,343 -202,588 -371,1760 -258,1421 377,1979l828 740c69,68 148,125 221,189 158,140 237,263 378,407 523,527 1254,1801 1365,2602 -59,50 -150,146 -212,151z"/>
   <path class="fil3" d="M17492 25492c551,-64 711,-42 784,499 83,615 -91,672 -641,668l-143 -1167zm-1193 -596c620,-8 1191,-11 1804,-33 623,-23 869,149 1070,702l-635 121c-9,1 -31,6 -39,6l-209 -30c-159,-401 -446,-277 -905,-274l94 877c-14,57 -29,-9 -85,116 -38,84 4,63 -45,147l-100 -196c-190,0 -144,20 -291,52 -97,22 -187,14 -292,16 -81,-215 -51,-576 -138,-806 -68,-179 -140,-140 -178,-296 -31,-122 -25,-263 -51,-402zm394 2775c84,2 90,288 93,309 80,574 -86,384 -89,663 -1,127 37,267 38,419 212,-4 429,-44 640,-67l520 -58c130,-44 34,-6 96,-45 12,-683 -316,-328 -339,-1578 150,-13 76,-10 133,30 454,-20 583,51 635,502 40,357 88,726 117,1086l989 -103c124,-47 142,-56 220,-139 -74,-605 -12,-331 -173,-554 -299,-413 283,-1130 -948,-1241 288,-259 631,-233 683,-775 50,-529 -86,-846 -361,-1112 -351,-339 -694,-248 -1227,-219 -507,27 -1012,8 -1516,24 2,173 18,537 123,666 183,224 154,342 190,661 56,504 100,1034 176,1531z"/>
   <path class="fil1" d="M13222 13670c-39,390 -191,759 -330,1076 -78,178 -151,317 -235,480 -77,151 -204,339 -255,471l88 -21c-57,196 -342,545 -466,726 -134,198 -433,571 -508,759 133,-84 356,-374 478,-516 141,-165 295,-391 440,-510 -107,317 -344,521 -451,794l224 -242c262,-354 1207,-1508 1265,-1764 -258,789 -1544,2611 -2078,3273 -522,649 -2154,2451 -2407,2946 308,-225 853,-1008 1131,-1121 -52,157 -1160,1536 -1251,1893 44,10 531,-144 648,-170 720,-163 1105,24 1179,-665 187,-1744 1048,-3099 2193,-4258l939 -903c462,-436 520,-521 165,-1238 -57,-116 -585,-1072 -769,-1010z"/>
   <path class="fil3" d="M15681 25323c-3,350 -188,-152 -40,1215 -149,-110 -390,-72 -695,-64 -49,-1049 -191,-985 -262,-1211 -41,-129 -30,-276 -57,-412l986 49c32,67 68,338 68,423zm-1774 285c10,263 62,636 96,933l-144 55c-277,70 -219,-93 -636,110 -11,-345 -58,-1069 -261,-1374 -164,-247 -74,-287 -149,-655l1094 120c55,97 64,286 71,413 12,238 -81,132 -71,398zm1805 -804l-1178 -49c61,1014 166,470 233,989 41,314 312,2485 271,2649 -84,333 -512,370 -661,59 -87,-181 -395,-2859 -382,-2938 52,-304 133,217 21,-795l-1302 -149c95,1265 231,500 316,1315 27,251 66,510 85,722 37,419 194,1928 298,2194 64,164 255,367 372,449 749,529 2059,122 2169,-700 31,-232 -31,-554 -59,-791 -58,-501 -124,-1005 -181,-1495 -30,-259 -99,-502 9,-737 95,-206 15,-474 -11,-723z"/>
   <path class="fil2" d="M27849 31043c-151,100 -414,242 -580,329 -149,79 -520,216 -537,294 32,65 -54,66 306,59 1459,-27 2628,-130 3971,-774 178,-86 331,-158 493,-257 955,-579 1661,-1247 2192,-2209 40,-73 73,-136 117,-224 54,-107 80,-143 125,-251 65,-154 187,-375 200,-576l-717 -154c-128,186 -247,500 -383,717l-444 622c76,127 189,207 273,347l-394 -205c-90,55 -360,315 -467,421 -346,337 -1097,810 -1532,1062 -497,288 -2198,957 -2623,799z"/>
   <path class="fil3" d="M23281 24081c142,-64 518,-144 690,-190 214,-58 438,-121 664,-189 269,-82 1103,-314 1289,-430l126 1221 -739 198c-139,-663 -820,-432 -993,-303 25,426 212,1145 -48,1084l-196 -25c-101,-2 -209,2 -311,3 -73,118 -7,109 -136,199l-68 -363c-15,-136 -29,-324 -57,-451 -53,-234 -318,-382 -221,-754zm315 3673c86,-27 33,-22 57,16 -63,106 -13,354 27,479 153,64 1175,-95 1351,-116 290,-33 1214,-111 1409,-196l-116 -1289c-17,-95 -57,-126 -9,-76l-56 -36c-81,-36 -191,-18 -321,7 -263,51 -448,148 -367,73 -99,83 -97,-84 -84,177 24,510 -295,744 -803,700 -15,-426 -110,-826 -110,-1228 -57,35 -27,-7 37,34 14,-154 538,-191 844,-256 33,-176 -31,-540 -64,-724 -186,46 -698,187 -863,180l-114 -1072c487,-133 736,-145 813,376l928 -240 -151 -1404c-203,44 -473,157 -686,228 -564,188 -1615,513 -2149,612 39,910 152,458 240,846l208 1973c44,418 113,577 -21,936z"/>
   <path class="fil3" d="M10315 24115c389,26 1018,220 1351,466 36,27 40,34 55,47l260 213c125,115 108,114 134,330 35,290 68,550 94,847l-747 -71c-137,-244 9,-671 -303,-899 -123,-91 -335,-141 -514,-69 -383,153 -120,1001 -87,1462 19,257 104,858 69,970 -144,2 -305,-6 -446,3l-354 0c-27,-445 -331,-2172 -238,-2534 -81,63 -96,104 -113,224 32,726 162,1582 247,2343 90,801 136,1469 581,2006 458,554 1663,581 2288,-167 146,-175 81,-275 53,-531 -38,-332 -74,-843 -150,-1150l-964 -10c23,268 135,677 68,941 -64,255 -365,399 -580,169 -201,-215 -259,-1335 -305,-1716 -36,-304 -236,-1578 -153,-1777 124,-299 488,-170 622,20 154,219 123,518 178,815l955 63c-7,-255 -68,-589 -98,-865 -44,-407 -105,-408 -352,-627 -303,-268 -852,-508 -1381,-575 -118,14 -97,7 -170,72z"/>
   <path class="fil1" d="M19970 29099c-80,-157 63,-217 141,-138 42,44 27,103 0,133 -82,90 -121,15 -141,5zm445 -274c-18,-42 -57,-60 13,-130 175,-173 264,296 -13,130zm-3704 889c-197,-14 -702,55 -830,133 502,482 976,356 1702,319 -155,58 -451,142 -586,229 304,7 639,-79 899,-171 297,-105 478,-243 726,-350 -66,101 -54,72 -147,146 -66,52 -89,81 -137,134 392,-113 706,-383 1027,-548 -246,276 -1241,855 -1765,959l282 -225c-558,220 -1396,392 -1874,-14 149,1 284,17 389,-35 -279,-183 -477,-153 -610,-455l-1239 209c-156,132 -451,139 -618,248 607,-1 730,-355 1072,-114 682,481 1577,616 2399,440 -168,36 -357,135 -620,167 755,83 1190,-177 1724,-351 -166,110 -315,200 -500,289 551,-53 1493,-800 1895,-1088 543,-391 1241,-879 2109,-932 297,31 513,-14 818,67 252,67 391,167 574,244l24 -27c-59,-156 -211,-336 -301,-445 -137,-165 -346,-295 -382,-365 -179,-25 -33,-66 -246,-113 -84,50 -280,-9 -408,-19 -1036,-82 -1773,459 -2543,926 -363,220 -899,550 -1308,705 -290,110 -1384,467 -1526,37z"/>
   <path class="fil4" d="M26663 23023c0,298 17,438 138,616 179,264 286,1651 297,1962 136,-12 8,2 91,-48 70,-42 33,67 43,-52 220,2 313,4 489,-33 6,7 12,19 16,23 88,109 16,52 76,67 30,7 60,-5 95,-27 16,-548 -200,-1800 -192,-2101l14 -134c425,-158 919,-422 1003,372 42,388 44,1174 217,1433l68 -132c51,51 47,69 153,53 124,-19 444,-118 548,-55 -59,-526 -111,-1044 -175,-1568 -37,-307 -101,-1099 -443,-1273 -259,-132 -901,254 -1241,396l-1197 501z"/>
   <path class="fil2" d="M17591 2303l204 -65c-57,178 -1084,1158 -1418,1796 -342,656 -367,1242 -157,1969 40,141 213,469 177,554 63,225 793,772 1030,967 385,316 686,633 961,1049 67,102 177,296 247,433l155 358c8,147 32,48 -40,76l116 390c108,-969 -810,-2097 -1383,-2739 -705,-790 -1237,-1694 -968,-2812l82 -204c92,1283 674,2381 1453,2827 -294,-219 -686,-1049 -811,-1479 -292,-1005 -171,-1778 -100,-1927 25,-54 26,-50 50,-79 12,735 102,1678 542,2267 107,142 333,373 482,428 -199,-101 -451,-885 -510,-1187 -180,-920 -38,-2083 610,-2740 141,-143 325,-238 531,-357 155,-90 445,-249 547,-340 -367,33 -749,92 -1063,231 -176,79 -268,139 -412,239 -139,96 -262,210 -325,345z"/>
   <path class="fil2" d="M20884 9478c-260,-30 604,-1314 946,-1627 237,-217 492,-409 739,-627 216,-189 571,-456 693,-683 -8,-141 151,-447 190,-618 307,-1341 -100,-1912 -912,-2865 -142,-166 -242,-294 -377,-441 -85,-93 -328,-272 -327,-421 116,63 112,99 278,135l-159 -190c-627,-530 -854,-516 -1636,-647 168,243 581,288 1025,713 650,624 762,1786 610,2662 -144,826 -308,822 -487,1236 819,-394 1002,-1872 997,-2720 269,391 77,1562 -23,1934 -77,286 -172,542 -300,795 -68,135 -117,227 -196,349 -82,127 -170,224 -240,363 515,-282 1016,-1172 1196,-1825 54,-197 114,-716 180,-844 238,387 79,1370 -92,1747 -231,509 -531,840 -840,1209 -529,634 -1501,1779 -1382,2703 72,-86 88,-227 117,-338z"/>
   <path class="fil0" d="M11516 17161c-278,385 -1844,2074 -2359,2721 -615,772 -1695,2175 -1939,3156 230,-225 408,-448 701,-642 306,-203 586,-356 948,-482 91,-357 1199,-1736 1251,-1893 -278,113 -823,896 -1131,1121 253,-495 1885,-2297 2407,-2946 534,-662 1820,-2484 2078,-3273 -58,256 -1003,1410 -1265,1764l-224 242c107,-273 344,-477 451,-794 -145,119 -299,345 -440,510 -122,142 -345,432 -478,516z"/>
   <path class="fil5" d="M29389 29617c-69,154 -896,776 -1108,926 -261,186 -977,653 -1276,735 -296,244 -1591,622 -2088,714 -1716,316 -3270,189 -4934,-243 -359,-94 -723,-215 -1064,-334 -332,-116 -670,-292 -982,-385l-690 87 26 61c397,299 1535,768 2051,925 905,277 1509,389 2461,440l682 34c530,3 889,-69 1330,-103 604,-47 2032,-440 2637,-707 137,-60 127,-54 298,-101 17,-78 388,-215 537,-294 166,-87 429,-229 580,-329 169,-90 556,-376 681,-405 76,-126 174,-147 324,-272l872 -766c72,-111 167,-179 294,-320 96,-107 181,-221 282,-324l103 -118c102,-218 257,-216 122,-445 -256,302 -839,1041 -1138,1224z"/>
   <path class="fil3" d="M26663 23023l1197 -501c340,-142 982,-528 1241,-396 342,174 406,966 443,1273 64,524 116,1042 175,1568 -104,-63 -424,36 -548,55 -106,16 -102,-2 -153,-53l-68 132c-173,-259 -175,-1045 -217,-1433 -84,-794 -578,-530 -1003,-372l-14 134c-8,301 208,1553 192,2101 -35,22 -65,34 -95,27 -60,-15 12,42 -76,-67 -4,-4 -10,-16 -16,-23 -176,37 -269,35 -489,33 -10,119 27,10 -43,52 -83,50 45,36 -91,48 -11,-311 -118,-1698 -297,-1962 -121,-178 -138,-318 -138,-616zm607 4909c169,-55 105,26 221,-93l1011 -898c145,-117 92,-104 43,-152l-356 59 -393 -3489c324,-75 638,-316 798,91 67,173 338,2835 323,3058 181,-173 368,-431 503,-591 140,-166 400,-439 414,-681 27,-329 -131,-1281 -176,-1660 -70,-589 -61,-1088 -423,-1453 -304,-306 -852,63 -1350,282 -221,97 -419,179 -648,273 -172,71 -542,194 -670,277 6,984 216,518 278,1158l283 2895c-50,394 -176,-200 -52,934l194 -10z"/>
   <path class="fil2" d="M13325 12128c105,319 331,793 579,956 -89,-403 -221,-540 -240,-1081 202,294 373,1173 1255,1748 639,415 1356,799 1686,1359l-424 -337c-145,-105 -305,-235 -499,-283 87,108 175,174 267,276 65,72 180,217 243,304 355,490 1091,1947 952,2286 69,519 -641,2401 -803,2964 181,-110 605,-1252 701,-1462 493,-1076 910,-3350 812,-4599 -18,-229 -84,-796 -157,-946 24,380 -233,2367 -324,2813 -137,-204 -238,-496 -386,-725 -982,-1525 -2138,-1842 -2742,-2889 -272,-473 -505,-1081 -510,-1741 -331,343 -248,1137 -410,1357z"/>
   <path class="fil2" d="M21943 13265l-41 261c-7,74 -28,153 -41,228 -27,158 -48,332 -62,492 -104,1204 323,3587 806,4610 177,374 491,1273 715,1507 -194,-667 -835,-2290 -824,-2979 -81,-242 423,-1416 540,-1642 180,-347 440,-709 678,-991 92,-110 195,-175 277,-281 -296,117 -489,275 -717,455 -80,63 -145,134 -228,176 621,-814 1056,-897 1871,-1500 103,-76 106,-95 192,-184 62,-64 132,-108 194,-181 426,-506 536,-1042 675,-1223 -9,532 -131,662 -240,1085 231,-191 529,-677 598,-998 -129,-110 -102,-1020 -430,-1340 16,593 -241,1350 -496,1762 -318,513 -658,790 -1078,1141 -203,170 -439,343 -615,511 -450,431 -690,683 -1038,1212 -151,230 -240,481 -326,630l-66 88c-111,-438 -239,-1545 -283,-2069 -17,-214 -69,-594 -61,-770z"/>
   <path class="fil2" d="M6701 17471c-287,299 -653,737 -895,1103 -830,1257 -1525,2784 -1611,4337 -48,41 -18,16 -84,39 20,352 287,940 447,1193l1531 97 91 -291 -77 25c-7,-34 -33,-120 -33,-122 -11,-116 -21,-59 51,-125l-109 -49c-42,-15 -89,-28 -127,-43 -76,-27 -167,-69 -241,-100 -148,-64 -350,-124 -477,-209 -23,13 -58,-42 -36,167l142 524c-893,-1276 -222,-3627 660,-4938 439,-652 795,-954 906,-1110 63,-89 15,30 45,-92 53,-264 550,-609 608,-824 -319,150 -776,661 -935,725 60,-132 125,-182 144,-307z"/>
   <path class="fil4" d="M9589 24880c-93,362 211,2089 238,2534l354 0c141,-9 302,-1 446,-3 35,-112 -50,-713 -69,-970 -33,-461 -296,-1309 87,-1462 179,-72 391,-22 514,69 312,228 166,655 303,899l747 71c-26,-297 -59,-557 -94,-847 -26,-216 -9,-215 -134,-330l-260 -213c-15,-13 -19,-20 -55,-47 -333,-246 -962,-440 -1351,-466 -168,60 -302,205 -419,327 -121,127 -272,258 -307,438z"/>
   <path class="fil3" d="M20112 26190c-133,-166 -150,-261 -178,-548 -67,-670 287,-1019 917,-1186 399,-105 836,-194 1265,-81 69,18 224,78 268,105 152,95 157,678 156,839l-756 115c-60,-749 -617,-620 -797,-445 -255,249 -207,641 -32,844 43,50 53,44 86,84 156,193 -163,82 -234,108 -118,44 -248,16 -386,32 -187,21 -140,29 -215,136l-53 -105c-24,34 -14,21 -31,61l-8 29c0,-3 0,9 -2,12zm1645 1719c93,40 268,31 376,51 146,27 248,73 363,105 213,47 67,88 246,113 499,-766 285,-2021 -790,-2149 -513,-61 -1092,-84 -1037,-686 24,-254 199,-439 489,-379 251,52 269,283 292,578 189,17 803,-87 949,-164l-92 -905c-543,-337 -1168,-281 -1799,-88 -602,184 -998,517 -916,1301 188,1791 2009,581 2070,1812 4,81 -4,159 -29,228 -36,101 -66,130 -122,183z"/>
   <path class="fil2" d="M21648 12130c338,358 849,54 1197,54 259,-93 307,-191 511,-283l-359 428c-284,275 -376,148 -530,346 609,46 740,-213 918,-471 189,-276 344,-515 502,-852 -11,377 -198,935 -465,1197 -131,129 -199,123 -334,238l39 14c620,52 982,-1560 1065,-1719 54,355 -33,519 -20,828 173,-245 90,-1023 205,-1155l27 670 76 -99c125,222 106,958 109,1260 280,-388 212,-906 240,-1436 174,317 146,626 214,1014 216,-778 120,-852 -16,-1573 60,70 107,158 145,279 55,171 25,204 127,255 276,-270 -202,-1089 -212,-1122 155,-57 355,-136 552,-142l-96 -220c-98,1 -885,-2 -976,-75l-531 393 101 30c102,5 1008,-262 1272,-209 -67,-17 -942,339 -1058,421 -227,161 -690,1067 -1421,1581 -686,483 -839,212 -1203,247l-64 85c-2,-6 -10,10 -15,16z"/>
   <path class="fil2" d="M14104 9644l-90 229c158,-21 423,62 538,151 -14,117 -456,682 -205,1121 161,-129 100,-450 313,-612 -93,549 -355,1119 -22,1664 50,-438 -11,-644 175,-1041 53,551 -58,947 237,1391 5,-471 43,-801 106,-1239l86 78 10 -630c79,68 58,39 66,311 10,297 65,701 182,944 -11,-362 -105,-589 -43,-987 92,368 213,728 349,1053 139,334 340,695 723,703 -499,-326 -669,-680 -746,-1367 90,126 148,290 228,424 152,253 338,592 581,725 183,100 360,144 598,105 -97,-130 -129,-105 -293,-157 -146,-45 -533,-469 -608,-607 108,42 156,95 252,158 69,47 186,114 256,151 41,-61 -71,-82 280,26 269,83 721,109 935,-103 -36,-47 -51,-127 -280,-99 -137,17 -185,51 -349,37 -208,-18 -422,-135 -567,-221 -345,-205 -385,-335 -619,-540 -263,-228 -575,-812 -893,-1086 -110,-94 -957,-468 -1068,-448 263,-56 1047,177 1360,216l-118 -116c-41,-34 -59,-50 -110,-93 -90,-75 -164,-120 -274,-177l-990 36z"/>
   <path class="fil0" d="M17750 11579c-469,50 -872,-240 -1137,-444 -175,-134 -740,-578 -835,-733 574,76 1817,846 1972,1177zm-2867 -2108c125,33 138,57 211,137 110,57 184,102 274,177 51,43 69,59 110,93l118 116c-313,-39 -1097,-272 -1360,-216 111,-20 958,354 1068,448 318,274 630,858 893,1086 234,205 274,335 619,540 145,86 359,203 567,221 164,14 212,-20 349,-37 229,-28 244,52 280,99l201 47c393,43 793,-68 976,-283 307,-361 171,-610 196,-1073 7,-170 -24,-222 -50,-373 -40,61 -54,73 -60,219 -12,247 21,422 -114,684 -449,874 -1479,-95 -1865,-528 -91,-102 -177,-144 -274,-238 -474,-457 -1743,-1229 -2300,-1284 118,112 91,-3 161,165z"/>
   <path class="fil0" d="M21889 11585c167,-298 1448,-1175 1995,-1176 -451,361 -1134,1210 -1995,1176zm-1582 -1134l-60 516c-9,433 5,660 234,940 178,217 560,295 956,278l211 -55c5,-6 13,-22 15,-16l64 -85c364,-35 517,236 1203,-247 731,-514 1194,-1420 1421,-1581 116,-82 991,-438 1058,-421 -264,-53 -1170,214 -1272,209l-101 -30 531 -393c104,-34 125,-51 202,-123 5,-8 15,-27 18,-21l38 -38c6,-5 15,-12 20,-17l61 -45c4,-4 14,-9 20,-15 -439,26 -1596,696 -2025,1050 -462,380 -1241,1232 -1735,1342 -529,118 -750,-354 -792,-753 -40,-373 65,-427 -67,-495z"/>
   <path class="fil0" d="M31942 23558c-63,-438 -202,-1422 -399,-1728 24,574 127,999 83,1635 -36,526 -119,985 -256,1467 -190,668 -443,1255 -800,1826 -99,160 -278,396 -346,533 273,-190 617,-587 832,-897 231,-332 443,-759 577,-1186 12,410 -311,1251 -469,1564 -120,237 -224,449 -350,675 -108,192 -321,473 -394,648 737,-748 1336,-1760 1637,-2783 343,-1169 363,-2767 -93,-3852 34,473 138,1705 -22,2098z"/>
   <path class="fil5" d="M14529 6687c117,-57 45,24 69,-142 48,-327 -186,-1478 466,-2388 235,-329 1154,-1370 1574,-1518 98,-120 317,-305 508,-329 -156,235 -854,536 -1182,1857 -223,897 -88,1884 433,2390 36,-85 -137,-413 -177,-554 -210,-727 -185,-1313 157,-1969 334,-638 1361,-1618 1418,-1796l-204 65 -438 428c-145,144 -284,269 -439,424 101,-273 642,-988 891,-1234 113,-111 327,-264 392,-358 -264,28 -1181,603 -1444,772 -462,296 -895,652 -1216,1003 -332,363 -654,774 -855,1364 -258,761 -51,1268 47,1985z"/>
   <path class="fil6" d="M14004 17604c155,70 27,644 20,780 -15,251 -35,653 -94,882 148,-11 42,-13 70,38 -59,89 -108,199 -171,304 -195,329 -297,678 -447,1016 -209,471 -405,884 -556,1379 104,43 179,80 259,129 42,25 108,66 126,77 84,55 63,34 116,94 106,-332 608,-950 970,-2332 213,-816 409,-2129 312,-3014 -83,23 -539,555 -605,647z"/>
   <path class="fil6" d="M25720 19265c-74,-295 -102,-977 -119,-1327 -17,-347 -68,-344 43,-336l-430 -499c-78,-87 -91,-123 -181,-163 -89,1959 377,3732 1198,5151l536 -199c-61,-357 -375,-986 -529,-1343 -91,-213 -180,-444 -274,-650 -90,-198 -271,-470 -315,-629l71 -5z"/>
   <path class="fil4" d="M23281 24081c-97,372 168,520 221,754 28,127 42,315 57,451l68 363c129,-90 63,-81 136,-199 102,-1 210,-5 311,-3l196 25c260,61 73,-658 48,-1084 173,-129 854,-360 993,303l739 -198 -126 -1221c-186,116 -1020,348 -1289,430 -226,68 -450,131 -664,189 -172,46 -548,126 -690,190z"/>
   <path class="fil2" d="M30223 17392l-471 -871c-728,-1438 -209,-1124 -1133,-2791 -987,-1780 -1169,-2173 -688,-4082 -5,-2 -14,1 -16,1 -107,6 -5,66 -119,0l300 -655c-228,148 -676,710 -828,1089 -132,329 -347,1325 -161,1667 28,-41 339,-1085 396,-1242 5,731 -85,1488 174,2151 260,668 914,1400 1248,2367 205,591 103,1049 838,1895 154,178 275,344 460,471z"/>
   <path class="fil2" d="M9395 17448c268,-138 968,-1176 1056,-1393 116,-288 149,-646 246,-950 305,-956 994,-1756 1254,-2394 302,-740 174,-1415 194,-2205l399 1221c262,-462 -102,-2170 -976,-2691 97,221 250,456 294,683l-151 -105c489,1811 318,2418 -680,4122 -887,1515 -424,1444 -1157,2835 -133,253 -401,644 -479,877z"/>
   <path class="fil0" d="M6884 17877c-30,122 18,3 -45,92 -111,156 -467,458 -906,1110 -882,1311 -1553,3662 -660,4938l-142 -524c-22,-209 13,-154 36,-167 -115,-63 -96,-258 -104,-507 -36,-1021 413,-2403 961,-3237l165 -198c299,-407 237,-383 618,-829l2010 -2289c156,-170 279,-330 438,-517 145,-171 316,-358 427,-552 -126,62 -85,66 -194,170l-1253 1136c-65,65 -97,118 -162,178 -72,66 -108,92 -179,163l-851 855c-71,75 -83,115 -159,178z"/>
   <path class="fil0" d="M28545 26789c210,-59 219,-125 372,-281 15,-223 -256,-2885 -323,-3058 -160,-407 -474,-166 -798,-91l393 3489 356 -59z"/>
   <path class="fil5" d="M12402 15697l-777 920c-1385,1620 -2657,2728 -3860,4671 -393,636 -718,1264 -1004,1963 -89,218 -115,218 -70,334l146 21c149,-125 277,-418 381,-568 244,-981 1324,-2384 1939,-3156 515,-647 2081,-2336 2359,-2721 75,-188 374,-561 508,-759 124,-181 409,-530 466,-726l-88 21z"/>
   <path class="fil5" d="M4111 22950c66,-23 36,2 84,-39 86,-1553 781,-3080 1611,-4337 242,-366 608,-804 895,-1103 129,-154 320,-298 480,-452 417,-401 994,-825 1450,-1212 350,-298 652,-529 950,-858 109,-121 741,-865 677,-1028 -169,148 -548,611 -923,952 -1117,1016 -1883,1619 -3007,2725 -956,941 -2640,3134 -2217,5352z"/>
   <path class="fil2" d="M6189 19384l-165 198c-548,834 -997,2216 -961,3237 8,249 -11,444 104,507l827 139c-74,-598 -67,-1061 -83,-1667 -185,333 -134,739 -255,1053 -210,-1239 481,-2582 1091,-3537 90,-142 579,-841 579,-903 -216,14 -1158,1358 -1356,1504l219 -531z"/>
   <path class="fil0" d="M30381 19754c-207,-347 -1970,-2208 -2252,-2595 -112,-75 -322,-338 -429,-462 -113,-129 -303,-372 -425,-460 95,310 390,584 522,864 -218,-156 -1265,-1619 -1470,-1929l-94 -122c-4,-5 -12,-14 -19,-20 72,351 1210,2077 1537,2505 307,401 568,743 890,1122 72,85 149,167 221,257 155,196 630,703 698,834l821 6z"/>
   <path class="fil4" d="M20112 26190c2,-3 2,-15 2,-12l8 -29c17,-40 7,-27 31,-61l53 105c75,-107 28,-115 215,-136 138,-16 268,12 386,-32 71,-26 390,85 234,-108 -33,-40 -43,-34 -86,-84 -175,-203 -223,-595 32,-844 180,-175 737,-304 797,445l756 -115c1,-161 -4,-744 -156,-839 -44,-27 -199,-87 -268,-105 -429,-113 -866,-24 -1265,81 -630,167 -984,516 -917,1186 28,287 45,382 178,548z"/>
   <path class="fil2" d="M18759 16355c-68,82 -80,150 -108,262 -23,90 -54,175 -80,261 -53,178 -118,359 -179,537l-396 971c-12,-168 678,-2218 638,-2997l-49 154c-4,8 -9,20 -15,30 -21,-306 60,-846 97,-1173 29,-255 -9,-966 324,-872 185,157 57,755 59,1002 14,-21 615,-1593 -64,-1597 -633,-4 -603,1938 -713,2824 -119,966 -431,2599 -699,3565 -49,179 -333,937 -293,1019 394,-363 1410,-3222 1478,-3986z"/>
   <path class="fil2" d="M30733 11661c36,272 67,430 47,717 -18,240 -72,480 -66,718 97,-72 84,-60 145,-176 173,-324 164,-486 183,-861 153,530 46,921 -175,1352 -151,294 -423,981 -41,1238 307,-7 444,-422 554,-696 123,-304 233,-599 348,-915 166,-452 474,-1571 325,-2039l-2 318c-81,-74 -127,-389 -172,-533 -119,-383 -449,-1130 -702,-1349 78,385 589,1016 444,2504 -61,634 -417,1964 -792,2218 58,-616 411,-1086 361,-1811 -43,-603 -254,-1233 -530,-1649 14,304 131,674 73,964z"/>
   <path class="fil2" d="M20601 14503c6,-225 -73,-684 -14,-874 28,-93 143,-187 260,-77 77,73 72,244 86,357 67,509 141,1143 122,1657l-79 -327c-46,763 707,2961 677,3151 12,-47 -165,-367 -210,-483l-580 -1637c114,697 398,1545 619,2178 147,423 653,1650 882,1902 48,-106 -247,-874 -297,-1057 -104,-379 -184,-739 -269,-1130 -177,-810 -314,-1577 -418,-2415 -75,-600 -149,-2038 -340,-2490 -155,-369 -922,-762 -602,708 22,99 40,178 64,276 9,35 24,102 36,136l48 100c2,-5 10,17 15,25z"/>
   <path class="fil2" d="M7571 11503c219,1302 290,1440 755,2559 103,248 248,629 501,583 170,-64 208,-492 179,-643 -38,-196 -165,-481 -245,-644 -103,-209 -183,-371 -204,-641 -21,-270 68,-643 63,-760 40,198 -6,444 54,701 41,173 159,418 276,491 43,-432 -183,-518 -17,-1534 -136,-167 90,-730 67,-952 -17,40 -162,148 -336,740 -237,804 -294,1056 -67,1882 76,279 242,605 223,897 -355,-256 -731,-1641 -794,-2238 -151,-1426 425,-2306 444,-2535 -169,212 -425,657 -541,953 -78,197 -131,353 -190,564 -39,138 -108,472 -168,577z"/>
   <path class="fil4" d="M16299 24896c26,139 20,280 51,402 38,156 110,117 178,296 87,230 57,591 138,806 105,-2 195,6 292,-16 147,-32 101,-52 291,-52l100 196c49,-84 7,-63 45,-147 56,-125 71,-59 85,-116l-94 -877c459,-3 746,-127 905,274l209 30c8,0 30,-5 39,-6l635 -121c-201,-553 -447,-725 -1070,-702 -613,22 -1184,25 -1804,33z"/>
   <path class="fil5" d="M33005 17582c148,69 484,504 593,660 531,756 977,1467 1316,2346 125,6 241,-25 337,-90 -97,-519 -843,-1625 -1116,-1977 -1075,-1387 -2694,-2586 -3977,-3803l-767 -792c-60,148 614,963 706,1058 747,762 1928,1579 2725,2358 49,48 72,71 115,131 26,38 45,78 68,109z"/>
   <path class="fil1" d="M17937 31030c312,93 650,269 982,385 341,119 705,240 1064,334 1664,432 3218,559 4934,243 497,-92 1792,-470 2088,-714 -220,43 -606,236 -875,322 -866,279 -2243,550 -3119,460 269,-98 917,-125 1788,-494 123,-53 427,-227 480,-231 -405,61 -796,274 -1764,382 -1602,179 -3283,-67 -4789,-585 -192,-65 -710,-322 -789,-102z"/>
   <path class="fil5" d="M13568 22461c52,90 37,99 157,119 896,-1156 1585,-2697 1889,-4188 40,-199 65,-583 128,-722 -70,-758 -318,-1749 -603,-2338 -40,256 101,683 144,954 248,1548 -193,3394 -884,4743 -240,468 -542,1044 -831,1432z"/>
   <path class="fil5" d="M23922 17667c121,955 333,1759 666,2552 294,701 720,1548 1122,2063l195 -52c-33,-150 -908,-1354 -1395,-3262 -270,-1056 -289,-2551 49,-3606 32,-100 123,-344 132,-432 17,58 -203,450 -259,572 -241,518 -468,1587 -510,2165z"/>
   <path class="fil2" d="M7289 20558c222,-225 370,-484 634,-668 -69,101 -263,428 -307,580l144 -142c80,-96 42,-79 146,-146 -75,271 -283,465 -311,741 11,-5 26,-26 32,-17 51,70 575,-819 620,-878l1559 -1887c159,-180 396,-266 432,-762 -132,56 -293,256 -416,368 -114,104 -287,235 -420,332 -611,446 -1203,768 -1618,1454 -113,185 -473,809 -495,1025z"/>
   <path class="fil2" d="M30405 28838l-103 118c-8,194 -89,328 -193,413 -83,68 -259,193 -383,231l-872 766c-150,125 -248,146 -324,272 492,-70 1195,-364 1600,-564 238,-117 455,-248 671,-386 151,-97 546,-321 613,-439 24,-107 -9,-34 67,-112 2,-3 61,-48 76,-61 121,-106 306,-366 360,-518 -120,67 -318,238 -470,343 -145,100 -337,225 -532,284 125,-284 301,-330 560,-913l-165 -96c-50,132 11,29 -84,128 0,0 -104,82 -114,90 -76,56 -128,99 -215,160 -132,92 -334,223 -492,284z"/>
   <path class="fil1" d="M12597 12827c45,81 -338,625 -454,828 -134,238 -344,628 -404,890l857 -1028 -692 1298c-138,286 -522,1143 -529,1487l82 -32c226,-149 1100,-1276 1221,-1618 -168,-35 -384,-7 -409,-266 -24,-251 183,-294 410,-265 53,62 98,192 189,245 117,-207 256,-424 318,-695 68,-249 -195,-387 -316,-736 -124,-356 -51,-229 -165,-246 -97,74 -60,33 -108,138z"/>
   <path class="fil5" d="M28224 16273c41,190 650,822 792,911 -6,-418 -461,-2022 -667,-2500 -252,-583 -522,-1018 -912,-1476 -120,-142 -287,-287 -390,-415 -68,170 703,1051 831,1694 -140,-144 -266,-329 -401,-500 -165,-210 -262,-309 -430,-472 71,199 993,1647 1198,2569 13,59 16,53 9,110 -12,100 19,11 -30,79z"/>
   <path class="fil1" d="M26486 13758c57,199 223,556 348,668 23,-166 45,-270 177,-308 149,-43 277,-3 334,105 129,239 -152,554 -398,377 77,260 674,1048 896,1308l251 295c110,111 4,53 130,70 49,-68 18,21 30,-79 7,-57 4,-51 -9,-110 -205,-922 -1127,-2370 -1198,-2569 168,163 265,262 430,472 135,171 261,356 401,500 -128,-643 -899,-1524 -831,-1694l-105 -108c-145,25 -31,-76 -163,254 -166,419 -405,498 -293,819z"/>
   <path class="fil5" d="M11457 16270l-82 32c7,-344 391,-1201 529,-1487l692 -1298 -857 1028c60,-262 270,-652 404,-890 116,-203 499,-747 454,-828 -415,189 -1091,1406 -1297,1865 -228,508 -657,2070 -657,2482 239,-235 642,-607 814,-904z"/>
   <path class="fil2" d="M20307 10451c132,68 27,122 67,495 42,399 263,871 792,753 494,-110 1273,-962 1735,-1342 429,-354 1586,-1024 2025,-1050 -6,6 -16,11 -20,15l-61 45c-5,5 -14,12 -20,17l-38 38c-3,-6 -13,13 -18,21 148,-27 245,-77 348,-144 -277,-141 -1284,121 -1574,233 -220,85 -460,208 -620,334 -505,401 -1203,1112 -1607,1294 -627,281 -733,-456 -842,-955l-122 189c-8,10 -26,48 -30,38 -3,-5 -11,13 -15,19z"/>
   <path class="fil2" d="M14883 9471c-70,-168 -43,-53 -161,-165 557,55 1826,827 2300,1284 97,94 183,136 274,238 386,433 1416,1402 1865,528 135,-262 102,-437 114,-684 6,-146 20,-158 60,-219 -71,-76 -116,-173 -165,-253 -31,296 -106,537 -227,769 -419,807 -1475,-559 -2241,-1117 -547,-397 -1835,-729 -2174,-553 101,70 222,103 355,172z"/>
   <path class="fil2" d="M31380 20017c125,117 211,98 334,240 88,101 226,190 336,289 -65,-289 -216,-406 -304,-651 135,87 327,332 444,467 35,41 45,61 76,95 7,8 28,31 36,38 42,39 16,19 67,52 -74,-251 -364,-804 -492,-1031 -321,-569 -1105,-1037 -1608,-1430l-716 -612c-97,-88 -17,-41 -143,-96 34,407 212,572 408,750l1562 1889z"/>
   <path class="fil0" d="M9157 22735l-30 -1c-275,70 -782,503 -956,699 -985,1114 -844,2738 -559,4061 -18,-652 -179,-908 -103,-1907 31,-419 146,-1033 345,-1412 5,-10 49,-84 51,-86l72 -87c-88,340 -295,719 -269,1129 182,-1244 1251,-2343 2426,-2514l-1050 552c462,-140 635,-289 1366,-461 1290,-305 2572,-48 3586,762 197,158 310,304 466,450 -44,-154 -261,-348 -385,-464 -179,-167 -346,-348 -636,-482 -21,-9 -79,-33 -94,-43 -63,-40 -53,-34 -82,-74 -337,-137 -551,-244 -951,-330 -447,-97 -778,-91 -1237,-80 9,-5 20,-11 27,-14l409 -119c-820,-4 -1424,69 -2146,409 -212,100 -370,214 -560,305 52,-84 210,-233 310,-293z"/>
   <path class="fil5" d="M11158 21545l356 14c125,-527 14,-883 445,-1807 93,-198 131,-369 279,-528 392,-998 1474,-2236 1530,-2381 -404,98 -1505,1476 -1758,1900 -330,554 -955,2009 -852,2802z"/>
   <path class="fil0" d="M22845 12184c-588,389 -708,174 -1391,208 -106,-3 -71,4 -121,44 506,199 1405,678 2052,585 653,-95 1010,-841 1019,-1596l-27 -670c-115,132 -32,910 -205,1155 -13,-309 74,-473 20,-828 -83,159 -445,1771 -1065,1719l-39 -14c135,-115 203,-109 334,-238 267,-262 454,-820 465,-1197 -158,337 -313,576 -502,852 -178,258 -309,517 -918,471 154,-198 246,-71 530,-346l359 -428c-204,92 -252,190 -511,283z"/>
   <path class="fil0" d="M15242 11386c-16,762 385,1562 1051,1639 422,49 1895,-442 2046,-634l-123 -3c-261,-11 -528,46 -801,33 -270,-13 -412,-142 -618,-209 -70,-37 -187,-104 -256,-151 -96,-63 -144,-116 -252,-158 75,138 462,562 608,607 164,52 196,27 293,157 -238,39 -415,-5 -598,-105 -243,-133 -429,-472 -581,-725 -80,-134 -138,-298 -228,-424 77,687 247,1041 746,1367 -383,-8 -584,-369 -723,-703 -136,-325 -257,-685 -349,-1053 -62,398 32,625 43,987 -117,-243 -172,-647 -182,-944 -8,-272 13,-243 -66,-311l-10 630z"/>
   <path class="fil5" d="M22876 2517c443,196 1343,1127 1665,1578 514,721 520,1481 495,2346 -2,56 -12,160 -10,207 3,59 -4,37 13,93 32,99 -31,10 43,74 297,-1410 405,-2143 -689,-3392 -341,-389 -775,-742 -1235,-1051 -259,-174 -1219,-756 -1469,-803 110,160 362,328 516,528 220,286 143,23 671,420z"/>
   <path class="fil4" d="M13223 26706c417,-203 359,-40 636,-110l144 -55c-34,-297 -86,-670 -96,-933 -10,-266 83,-160 71,-398 -7,-127 -16,-316 -71,-413l-1094 -120c75,368 -15,408 149,655 203,305 250,1029 261,1374z"/>
   <path class="fil2" d="M14529 6687c190,854 349,1178 151,2086l-17 -65c-92,103 -48,306 -39,458 277,-133 390,-1016 373,-1430 -63,-1507 -766,-2081 649,-3885l160 -180c94,-81 2,-17 93,-67l-15 143c132,-169 229,-401 344,-578 65,-100 127,-200 204,-271 116,-108 146,-104 206,-259 -420,148 -1339,1189 -1574,1518 -652,910 -418,2061 -466,2388 -24,166 48,85 -69,142z"/>
   <path class="fil0" d="M16638 2639c-60,155 -90,151 -206,259 -77,71 -139,171 -204,271 -115,177 -212,409 -344,578 -190,653 -207,895 -235,1617 119,261 60,938 846,1691 95,91 186,147 278,235 192,182 380,298 548,487 175,79 639,592 781,744 202,217 547,571 648,919 72,-28 48,71 40,-76l-155 -358c-70,-137 -180,-331 -247,-433 -275,-416 -576,-733 -961,-1049 -237,-195 -967,-742 -1030,-967 -521,-506 -656,-1493 -433,-2390 328,-1321 1026,-1622 1182,-1857 -191,24 -410,209 -508,329z"/>
   <path class="fil2" d="M23764 3714c2,-155 3,-64 35,-99 222,221 568,675 748,1020 643,1229 164,2082 118,3103 -21,465 67,1226 360,1425 10,-156 49,-403 -47,-515l1 129c-273,-712 17,-1289 103,-1962 -74,-64 -11,25 -43,-74 -17,-56 -10,-34 -13,-93 -2,-47 8,-151 10,-207 25,-865 19,-1625 -495,-2346 -322,-451 -1222,-1382 -1665,-1578 157,188 263,258 471,552l417 645z"/>
   <path class="fil2" d="M32793 17910c30,110 411,497 509,625 361,477 603,738 882,1368l337 823c129,-29 307,-57 393,-138 -339,-879 -785,-1590 -1316,-2346 -109,-156 -445,-591 -593,-660l105 212 -710 -573c-86,-61 -171,-100 -225,-150 33,171 573,596 618,839z"/>
   <path class="fil5" d="M27409 19226l595 1468c145,-4 288,-273 300,-352 -224,-1232 -1431,-2891 -2415,-3514 22,119 315,451 402,563 155,198 271,366 415,575 185,268 610,967 703,1260z"/>
   <path class="fil0" d="M20432 29437c-57,29 -76,33 -117,69 -121,108 -48,-5 -85,149 189,34 593,217 842,290 1524,453 3345,154 4743,-504 446,-210 1155,-551 1458,-823 -167,63 -834,474 -1409,703 -526,210 -1078,373 -1683,469 -965,151 -1951,112 -2906,-117 -246,-59 -644,-210 -843,-236z"/>
   <path class="fil5" d="M28129 17159c282,387 2045,2248 2252,2595l471 91c-203,-499 -3288,-3621 -3640,-4212 -107,16 -39,-37 -67,55 144,243 335,481 496,728 143,219 400,512 488,743z"/>
   <path class="fil5" d="M23262 6541c208,-171 423,-655 490,-1037 83,-468 38,-927 -72,-1366 -147,-589 -430,-1094 -826,-1496 -113,-114 -267,-317 -456,-335 103,309 519,588 576,894l-860 -870c-166,-36 -162,-72 -278,-135 -1,149 242,328 327,421 135,147 235,275 377,441 812,953 1219,1524 912,2865 -39,171 -198,477 -190,618z"/>
   <path class="fil2" d="M9829 13901c655,-461 1082,-1775 489,-2505 -255,-12 -314,128 -404,338 -83,192 -108,411 -107,644 5,530 54,963 22,1523z"/>
   <path class="fil2" d="M17321 7777c-168,-189 -356,-305 -548,-487 -92,-88 -183,-144 -278,-235 -786,-753 -727,-1430 -846,-1691 -5,135 4,69 -38,124 -63,-131 -119,-249 -169,-383 -51,-138 -77,-308 -138,-410 -106,484 54,1186 247,1567 222,439 548,734 841,1033 311,316 592,643 893,985 342,390 647,928 810,1090 -71,-566 -754,-1434 -774,-1593z"/>
   <path class="fil2" d="M29821 13903c-65,-793 263,-2453 -462,-2514 -292,263 -383,959 -252,1410 89,307 448,948 714,1104z"/>
   <path class="fil2" d="M24003 5454c-154,181 116,372 -644,1367 -263,344 -929,807 -1062,990 44,26 64,-18 -49,147 -231,337 -650,1012 -667,1378 93,-89 287,-401 378,-536 127,-187 267,-362 398,-522 591,-720 1395,-1349 1732,-2022 193,-384 393,-1077 251,-1562 -59,104 -90,299 -144,439 -27,71 -46,118 -81,194 -90,202 -72,147 -112,127z"/>
   <path class="fil2" d="M30519 11195c-8,-127 -29,-207 -89,-299 -82,-124 -136,-115 -97,-240 -253,100 -547,214 -735,424 -84,93 -33,20 -79,123 402,126 598,626 558,1176 -31,438 -22,1140 237,1446l111 -694c103,-804 98,-1393 -141,-2161 93,90 154,169 235,225z"/>
   <path class="fil5" d="M9185 27486c-45,-745 -64,-1444 170,-2151 10,-30 33,-99 46,-125 4,-7 8,-16 12,-23l63 -83c17,-120 32,-161 113,-224 35,-180 186,-311 307,-438 117,-122 251,-267 419,-327 73,-65 52,-58 170,-72 224,-303 1540,-404 2080,-330 322,44 739,100 1055,171 176,40 332,80 488,125 142,40 318,107 462,134 -990,-516 -3056,-938 -4200,-387 -968,466 -1275,1479 -1284,2543 -2,301 32,958 99,1187z"/>
   <path class="fil2" d="M9120 11217c122,-103 112,-176 240,-232 -301,1165 -184,1655 -45,2847l92 -155c13,-30 39,-110 52,-150 138,-447 155,-668 122,-1151 -18,-270 -1,-539 110,-763 135,-273 293,-320 422,-461 -234,-237 -374,-353 -796,-493 54,112 2,93 -86,218 -71,101 -99,189 -111,340z"/>
   <path class="fil4" d="M14946 26474c305,-8 546,-46 695,64 -148,-1367 37,-865 40,-1215 0,-85 -36,-356 -68,-423l-986 -49c27,136 16,283 57,412 71,226 213,162 262,1211z"/>
   <path class="fil2" d="M16627 24013c147,6 784,2 881,-44l-90 -21c394,-347 1521,-2230 1631,-3006 -865,1283 -689,1129 -1730,2393l-692 678z"/>
   <path class="fil0" d="M20601 14503c-20,515 230,1252 262,1767l580 1637c45,116 222,436 210,483 30,-190 -723,-2388 -677,-3151l79 327c19,-514 -55,-1148 -122,-1657 -14,-113 -9,-284 -86,-357 -117,-110 -232,-16 -260,77 -59,190 20,649 14,874z"/>
   <path class="fil0" d="M18759 16355c44,-529 290,-1259 291,-1825 -2,-247 126,-845 -59,-1002 -333,-94 -295,617 -324,872 -37,327 -118,867 -97,1173 6,-10 11,-22 15,-30l49 -154c40,779 -650,2829 -638,2997l396 -971c61,-178 126,-359 179,-537 26,-86 57,-171 80,-261 28,-112 40,-180 108,-262z"/>
   <path class="fil2" d="M35432 25480l137 -206c47,-59 83,-107 130,-176 191,-280 563,-975 586,-1304l-699 125c-75,126 -118,247 -188,367 -332,576 -483,617 -783,952 200,45 670,130 817,242z"/>
   <path class="fil2" d="M33543 24222l127 770c623,254 642,116 935,-168 85,-83 233,-282 319,-399 103,-140 178,-269 259,-436l-1640 233z"/>
   <path class="fil5" d="M7571 11503c60,-105 129,-439 168,-577 59,-211 112,-367 190,-564 116,-296 372,-741 541,-953 87,-135 365,-415 480,-517 168,-152 357,-292 589,-399 516,-239 1095,-266 1685,-119 204,24 221,71 413,66 -990,-647 -2160,-293 -2893,349 -601,526 -1102,1419 -1171,2259 -11,137 18,349 -2,455z"/>
   <path class="fil5" d="M28012 8442c207,-4 188,-56 409,-69 599,-136 1159,-129 1684,120 337,159 955,657 1072,942 253,219 583,966 702,1349 45,144 91,459 172,533l2 -318c-88,-1740 -2207,-3745 -4041,-2557z"/>
   <path class="fil2" d="M34306 27083l176 -847c81,-260 462,-269 520,-449 -125,-45 -931,-149 -1052,-119 -175,43 -244,149 -267,351 -21,194 -56,408 -73,603l629 394c7,7 15,15 21,21l46 46z"/>
   <path class="fil0" d="M28564 21186l-193 107c-115,88 -253,167 -359,247 -133,101 -210,185 -322,274 101,-49 141,-85 239,-130 560,-261 1074,-404 1688,-126 235,106 186,88 196,178 213,47 451,436 593,607 -44,-390 -344,-730 -691,-803 406,-36 848,489 962,761 -315,-1105 -1114,-1004 -1321,-1109 680,-83 973,302 1277,437 -168,-252 -459,-503 -840,-610 -508,-143 -826,36 -1229,167z"/>
   <path class="fil1" d="M18255 30926c1889,366 1914,318 3622,207 -575,-72 -959,-19 -1548,-171 -239,-62 -419,-122 -636,-216 -214,-93 -385,-213 -570,-293l-868 473z"/>
   <path class="fil2" d="M36702 23603l-348 0c125,-262 238,-1149 238,-1563l-76 52c-157,93 -389,129 -584,237 -60,991 -149,827 -223,1336 566,-47 753,47 967,-48 7,-3 18,-8 26,-14z"/>
   <path class="fil2" d="M33349 20197l20 24c60,38 59,22 132,166 87,173 242,425 205,581l509 -148c-64,-268 -530,-1285 -776,-1452l249 580c-222,-218 -444,-563 -651,-808 -207,-247 -493,-594 -709,-751 5,130 185,327 266,447 174,258 759,1146 755,1361z"/>
   <path class="fil2" d="M4179 25446c305,-116 712,-22 1049,-82 -319,-284 -349,-228 -705,-671 -132,-165 -115,-266 -393,-322 -192,-38 -419,-81 -600,-148 12,193 191,497 275,642 49,85 114,178 175,268 105,155 134,120 199,313z"/>
   <path class="fil0" d="M20489 29369c433,-32 1299,-204 1672,-134l45 -31c116,-53 422,-64 561,-82l369 -28c101,-51 38,-10 117,-30l148 -49c-183,-77 -322,-177 -574,-244 -305,-81 -521,-36 -818,-67 -78,86 -197,65 -426,128 -375,104 -814,320 -1094,537z"/>
   <path class="fil0" d="M12826 22003c151,-495 347,-908 556,-1379 150,-338 252,-687 447,-1016 63,-105 112,-215 171,-304 -28,-51 78,-49 -70,-38 -346,455 -1386,1760 -1440,2563l336 174z"/>
   <path class="fil3" d="M20188 28389c85,22 375,-165 526,-228l464 -151c189,-54 58,24 151,-77 -219,-151 -162,-297 -205,-589l-1037 95 101 950z"/>
   <path class="fil2" d="M35534 23002c-102,-37 -39,73 -91,-111 -8,-29 -10,-108 -12,-140 -4,-115 -2,-162 26,-271 -191,93 -533,144 -668,278 0,0 -238,942 -240,976l790 -45 195 -687z"/>
   <path class="fil2" d="M21790 23438c134,-35 383,-75 504,-135l-1638 -2227c38,291 376,992 498,1248 92,193 207,395 317,570 93,147 288,385 319,544z"/>
   <path class="fil5" d="M21329 27933c-93,101 38,23 -151,77l-464 151c-151,63 -441,250 -526,228 -54,99 -333,251 -442,301 -78,83 -96,92 -220,139 -415,311 -2111,1195 -2815,885 142,430 1236,73 1526,-37 409,-155 945,-485 1308,-705 770,-467 1507,-1008 2543,-926 128,10 324,69 408,19 -115,-32 -217,-78 -363,-105 -108,-20 -283,-11 -376,-51 -119,24 -300,60 -428,24z"/>
   <path class="fil1" d="M32974 15364c14,153 216,534 288,719 84,213 195,564 193,818 147,343 -223,86 468,585 37,-672 -467,-1662 -466,-1869 -56,-114 -124,-217 -189,-324 -80,-132 -94,-237 -284,-208 0,131 57,176 -10,279z"/>
   <path class="fil1" d="M6228 15563c-22,251 -439,923 -513,1907 116,-36 230,-146 333,-219 249,-173 15,-210 154,-388 -7,-527 361,-1046 462,-1467l-2 -317c-228,-6 -340,313 -434,484z"/>
   <path class="fil0" d="M18276 25991c-73,-541 -233,-563 -784,-499l143 1167c550,4 724,-53 641,-668z"/>
   <path class="fil2" d="M33644 23159c45,60 42,-45 33,149 -1,31 -14,118 -20,154 -15,110 -36,221 -53,328l850 -50c76,-277 127,-610 139,-927 -162,37 -315,100 -471,160l-478 186z"/>
   <path class="fil2" d="M15988 23899l-125 70c9,7 23,2 29,15 6,13 21,11 29,14 151,44 422,15 591,25 76,-162 144,-160 270,-304 435,-500 1268,-1651 1380,-2198 -154,200 -303,481 -457,698 -290,408 -1353,1592 -1717,1680z"/>
   <path class="fil5" d="M17750 11579c-155,-331 -1398,-1101 -1972,-1177 95,155 660,599 835,733 265,204 668,494 1137,444z"/>
   <path class="fil5" d="M21889 11585c861,34 1544,-815 1995,-1176 -547,1 -1828,878 -1995,1176z"/>
   <path class="fil5" d="M5367 18171c23,-188 36,-342 99,-492 96,-434 173,-766 308,-1146 99,-279 297,-786 454,-970 94,-171 206,-490 434,-484l2 317c47,-175 138,-373 137,-594 -381,22 -912,955 -1101,1419 -169,417 -489,1586 -447,2079l114 -129z"/>
   <path class="fil5" d="M32974 15364c67,-103 10,-148 10,-279 190,-29 204,76 284,208 65,107 133,210 189,324 204,163 698,1676 721,2064l99 480c54,102 36,80 120,138 57,-438 -292,-1694 -439,-2058 -157,-390 -732,-1452 -1102,-1423 -5,134 80,451 118,546z"/>
   <path class="fil1" d="M9157 22735c-100,60 -258,209 -310,293 190,-91 348,-205 560,-305 722,-340 1326,-413 2146,-409l-409 119c-7,3 -18,9 -27,14 459,-11 790,-17 1237,80 400,86 614,193 951,330l-183 -147c-560,-313 -1136,-509 -1812,-525 -896,-20 -1467,230 -2153,550z"/>
   <path class="fil2" d="M5441 27323c55,179 100,314 171,476 30,67 59,137 94,215 62,136 75,99 42,230 229,-129 490,-304 756,-405l-248 -547c-252,14 -579,73 -815,31z"/>
   <path class="fil2" d="M21333 12436c50,-40 15,-47 121,-44 -123,-113 -56,35 -115,-132 75,-33 -51,52 37,-18l40 -35c5,-4 14,-15 21,-22 -396,17 -778,-61 -956,-278 -229,-280 -243,-507 -234,-940 -77,159 -48,335 -16,530 -136,-61 -61,-70 -189,-111 -2,810 382,1282 1196,995 13,8 92,53 95,55z"/>
   <path class="fil2" d="M18213 12182c6,7 15,18 19,23 4,4 14,16 19,21 4,4 14,15 18,18 5,5 25,24 34,32 -35,122 20,21 -87,112l123 3c285,-26 555,244 958,-78 238,-191 299,-522 299,-921 -156,48 -15,37 -172,101 17,-181 54,-535 -39,-667 -25,463 111,712 -196,1073 -183,215 -583,326 -976,283z"/>
   <path class="fil2" d="M11493 8686l403 308c141,110 237,235 362,353 295,276 472,746 586,875 14,-389 -222,-793 -403,-1054 -239,-342 -429,-573 -804,-728 -192,5 -209,-42 -413,-66 62,87 61,88 148,154 64,49 33,1 96,78 94,116 35,50 25,80z"/>
   <path class="fil2" d="M28012 8442c-464,112 -1166,1079 -1220,1781 94,-91 175,-298 288,-466 198,-297 395,-548 675,-758 136,-102 282,-195 409,-307 -72,-50 -44,14 0,-71 11,-22 62,-65 83,-81 87,-69 118,-61 174,-167 -221,13 -202,65 -409,69z"/>
   <path class="fil2" d="M35341 21889c-82,-151 -107,-349 -165,-556 -45,-163 -153,-378 -172,-527 -177,34 -223,120 -417,158l189 1015 565 -90z"/>
   <path class="fil2" d="M5957 25356l47 -558 -1178 -277c54,156 646,801 851,840 71,14 203,-1 280,-5z"/>
   <path class="fil2" d="M5270 27015c220,-57 543,-135 826,-172l-98 -489c-263,-90 -581,-34 -830,-157 17,289 168,602 102,818z"/>
   <path class="fil1" d="M33995 22153c23,-183 -5,-715 -158,-797l-528 238 -25 683c248,-33 463,-125 711,-124z"/>
   <path class="fil5" d="M18728 10379c101,-347 -242,-428 -383,-469 -182,-54 -156,-143 -285,-157 -118,-12 -234,106 -197,237 22,78 117,45 166,273 128,597 632,349 699,116z"/>
   <path class="fil5" d="M21748 10057c85,-97 23,-259 -82,-295 -174,-59 -155,65 -289,126 -193,88 -471,47 -460,409 9,247 277,415 513,294 102,-52 151,-127 180,-265 63,-301 69,-189 138,-269z"/>
   <path class="fil4" d="M23596 27754c-85,92 8,450 19,601l2870 -343c78,-130 -118,-1482 -140,-1599l-916 193c-18,660 15,773 -693,837l-125 -1144c-64,-41 -94,1 -37,-34 0,402 95,802 110,1228 508,44 827,-190 803,-700 -13,-261 -15,-94 84,-177 -81,75 104,-22 367,-73 130,-25 240,-43 321,-7l56 36c-48,-50 -8,-19 9,76l116 1289c-195,85 -1119,163 -1409,196 -176,21 -1198,180 -1351,116 -40,-125 -90,-373 -27,-479 -24,-38 29,-43 -57,-16z"/>
   <path class="fil2" d="M33837 21356c153,82 181,614 158,797l539 -107c-27,-238 -92,-765 -228,-921l-469 231z"/>
   <path class="fil2" d="M6021 28721c89,37 50,15 106,64l474 687 135 -176c48,-48 104,-87 149,-119l-181 -714 -683 258z"/>
   <path class="fil1" d="M31414 29249c235,-157 558,-446 710,-630 -128,-135 -457,-251 -649,-347 -259,583 -435,629 -560,913 195,-59 387,-184 532,-284 152,-105 350,-276 470,-343 -54,152 -239,412 -360,518 -15,13 -74,58 -76,61 -76,78 -43,5 -67,112z"/>
   <path class="fil1" d="M33706 20968c37,-156 -118,-408 -205,-581 -73,-144 -72,-128 -132,-166 -121,75 -283,183 -374,277l228 609 483 -139z"/>
   <path class="fil5" d="M35004 20806c19,149 127,364 172,527 58,207 83,405 165,556l226 -58c-5,-393 -139,-828 -241,-1163 -128,14 -239,78 -322,138z"/>
   <path class="fil5" d="M32832 26094c118,98 286,217 451,277 98,-143 112,-660 84,-804l-492 -65 -43 592z"/>
   <path class="fil2" d="M5466 17679c114,-36 116,-55 214,-114l6 214c173,-77 229,-234 352,-370 215,-238 143,-133 164,-546 -139,178 95,215 -154,388 -103,73 -217,183 -333,219 74,-984 491,-1656 513,-1907 -157,184 -355,691 -454,970 -135,380 -212,712 -308,1146z"/>
   <path class="fil2" d="M33455 16901c-14,320 -4,339 151,510 92,102 207,267 318,325 22,-118 11,-166 63,-149l191 94c-23,-388 -517,-1901 -721,-2064 -1,207 503,1197 466,1869 -691,-499 -321,-242 -468,-585z"/>
   <path class="fil5" d="M29906 9141c60,99 11,174 143,197 144,25 141,-87 132,-207 -71,-44 -115,-50 -219,-46 17,-462 -379,-618 -556,-343 -194,302 260,645 500,399z"/>
   <path class="fil2" d="M23401 29015l-148 49c-79,20 -16,-21 -117,30 238,3 427,199 618,318 207,129 544,8 769,-40 -80,-83 -149,-100 -261,-161 -343,-189 -257,-249 -510,-205 -168,29 -223,62 -327,-18l-24 27z"/>
   <path class="fil2" d="M22464 23285l315 -87c-7,-13 -862,-932 -1288,-1663 62,231 318,679 443,897 93,161 495,715 530,853z"/>
   <path class="fil5" d="M32398 28279c178,-90 647,-844 670,-1102l-360 -86c-45,207 -83,417 -141,609 -57,187 -155,387 -169,579z"/>
   <path class="fil5" d="M9884 8660c-398,222 -154,724 235,515 318,-171 131,-720 -235,-515z"/>
   <path class="fil2" d="M17508 23969l168 19c632,-727 785,-990 1284,-1812 137,-226 276,-426 379,-688l-110 2c-184,690 -1331,2099 -1721,2479z"/>
   <path class="fil5" d="M7943 26811c51,302 633,313 563,-93 -65,-376 -634,-325 -563,93z"/>
   <path class="fil5" d="M8586 24212c-364,144 -147,677 218,540 297,-110 140,-682 -218,-540z"/>
   <path class="fil5" d="M10904 22778c-378,137 -183,677 182,537 292,-112 203,-678 -182,-537z"/>
   <path class="fil4" d="M16693 27671c36,233 120,563 21,756 -121,235 -81,205 -16,702l1355 -147c4,-105 -18,-347 -39,-451 -44,-227 -94,-77 -184,-291 -54,-128 -99,-668 -117,-849 8,-7 7,-45 72,-47 -57,-40 17,-43 -133,-30 23,1250 351,895 339,1578 -62,39 34,1 -96,45l-520 58c-211,23 -428,63 -640,67 -1,-152 -39,-292 -38,-419 3,-279 169,-89 89,-663 -3,-21 -9,-307 -93,-309z"/>
   <polygon class="fil5" points="32800,24339 32842,24788 33325,24910 33230,24285 "/>
   <path class="fil5" d="M12678 14652c80,-84 145,-247 190,-286 -91,-53 -136,-183 -189,-245 -227,-29 -434,14 -410,265 25,259 241,231 409,266z"/>
   <path class="fil5" d="M26834 14426l113 174c246,177 527,-138 398,-377 -57,-108 -185,-148 -334,-105 -132,38 -154,142 -177,308z"/>
   <path class="fil1" d="M16797 12212c206,67 348,196 618,209 273,13 540,-44 801,-33 107,-91 52,10 87,-112 -9,-8 -29,-27 -34,-32 -4,-3 -14,-14 -18,-18 -5,-5 -15,-17 -19,-21 -4,-5 -13,-16 -19,-23l-201 -47c-214,212 -666,186 -935,103 -351,-108 -239,-87 -280,-26z"/>
   <path class="fil1" d="M21437 12185c-7,7 -16,18 -21,22l-40 35c-88,70 38,-15 -37,18 59,167 -8,19 115,132 683,-34 803,181 1391,-208 -348,0 -859,304 -1197,-54l-211 55z"/>
   <path class="fil2" d="M22161 29235c205,106 906,255 1183,254l-501 -291c-98,-76 -32,-17 -76,-76 -139,18 -445,29 -561,82l-45 31z"/>
   <path class="fil1" d="M33604 23790c17,-107 38,-218 53,-328 6,-36 19,-123 20,-154 9,-194 12,-89 -33,-149l-385 138 163 490 182 3z"/>
   <path class="fil5" d="M30793 24485c-271,131 -96,535 176,423 252,-104 118,-565 -176,-423z"/>
   <polygon class="fil5" points="32770,23477 32742,23815 33077,23813 32956,23423 "/>
   <path class="fil6" d="M5466 17679c-63,150 -76,304 -99,492 81,-94 51,-77 163,-175 84,-74 111,-102 156,-217l-6 -214c-98,59 -100,78 -214,114z"/>
   <path class="fil6" d="M33924 17736c4,8 11,11 14,23l339 402 -99 -480 -191 -94c-52,-17 -41,31 -63,149z"/>
   <path class="fil0" d="M29726 29600c124,-38 300,-163 383,-231 104,-85 185,-219 193,-413 -101,103 -186,217 -282,324 -127,141 -222,209 -294,320z"/>
   <path class="fil7" d="M6366 25345c47,-81 108,-352 75,-467l-112 -14c-64,132 -68,314 -58,472l95 9z"/>
   <path class="fil7" d="M35457 22480c-28,109 -30,156 -26,271 2,32 4,111 12,140 52,184 -11,74 91,111l74 -549 -151 27z"/>
   <path class="fil5" d="M8341 25094c266,-3 191,-249 65,-267 -183,-28 -205,145 -65,267z"/>
   <path class="fil5" d="M8085 27377c140,116 315,72 247,-109 -42,-114 -269,-173 -247,109z"/>
   <path class="fil5" d="M10383 23118c-150,98 -7,316 142,213 134,-93 33,-327 -142,-213z"/>
   <path class="fil5" d="M9495 9130c-117,123 56,289 174,174 136,-132 -46,-308 -174,-174z"/>
   <path class="fil5" d="M6587 24259c54,-150 74,-126 89,-297l-137 -48 -97 336 145 9z"/>
   <path class="fil5" d="M17259 9751c33,120 280,74 218,-91 -49,-128 -267,-86 -218,91z"/>
   <path class="fil5" d="M22171 9751c29,113 277,96 215,-91 -45,-136 -254,-63 -215,91z"/>
   <path class="fil5" d="M31717 21248c164,-9 238,-150 140,-244 -43,-40 -98,-4 -120,27 -56,76 -33,128 -20,217z"/>
   <path class="fil7" d="M29014 20637c230,-26 174,-231 96,-261 -43,-16 -90,32 -108,74 -35,76 -8,132 12,187z"/>
   <path class="fil7" d="M31304 20849c74,-25 81,-3 110,-82 41,-118 -14,-137 -42,-176 -189,40 -173,165 -68,258z"/>
   <path class="fil7" d="M29563 20458c181,-17 179,-115 120,-249 -154,-29 -178,110 -120,249z"/>
   <path class="fil7" d="M28371 21293l193 -107c-4,-8 -8,-28 -10,-24 -13,40 -15,-39 -19,-47 -44,-83 14,-18 -63,-89 -145,63 -121,85 -101,267z"/>
   <path class="fil5" d="M30610 25092c76,-142 61,-234 -149,-180 -19,148 5,188 149,180z"/>
   <path class="fil5" d="M30215 20151c-74,21 -51,6 -108,37 -34,100 -55,101 3,208 173,-14 151,-112 105,-245z"/>
   <path class="fil5" d="M20415 28825c277,166 188,-303 13,-130 -70,70 -31,88 -13,130z"/>
   <path class="fil5" d="M16463 8854c268,38 265,-225 10,-183l-10 183z"/>
   <path class="fil5" d="M30931 20299l-19 2c-128,46 -118,100 -77,256 169,-28 156,-149 96,-258z"/>
   <polygon class="fil5" points="23010,8853 23178,8866 23182,8666 23025,8667 "/>
   <path class="fil5" d="M19970 29099c20,10 59,85 141,-5 27,-30 42,-89 0,-133 -78,-79 -221,-19 -141,138z"/>
   <path class="fil1" d="M6180 23949l54 -177 -113 -45c-72,66 -62,9 -51,125 0,2 26,88 33,122l77 -25z"/>
   <path class="fil4" d="M27175 1801c0,85 55,9 21,0 0,0 -21,-97 -21,0z"/>
  </g>
 </g>
</svg>
